<svg xmlns="http://www.w3.org/2000/svg" class="iconsvg iconsvg-battery" fill="black" width="128" height="128"
    viewBox="0 0 64 64">
    <path
        d="M46 8h-6V5a3 3 0 00-3-3H27a3 3 0 00-3 3v3h-6a3 3 0 00-3 3v48a3 3 0 003 3h28a3 3 0 003-3V11a3 3 0 00-3-3zM26 5a1 1 0 011-1h10a1 1 0 011 1v3H26zm21 54a1 1 0 01-1 1H18a1 1 0 01-1-1V11a1 1 0 011-1h28a1 1 0 011 1z" />
    <path
        d="M44.316 23.051l-12-4a1 1 0 00-.632 0l-12 4A1 1 0 0019 24v5.3a25.118 25.118 0 0012.213 21.48l.276.164a1 1 0 001.022 0l.277-.164A25.119 25.119 0 0045 29.3V24a1 1 0 00-.684-.949zM43 29.3a23.109 23.109 0 01-11 19.619A23.109 23.109 0 0121 29.3v-4.579l11-3.667 11 3.667z" />
    <path
        d="M31.105 23.553l-6 12A1 1 0 0026 37h5v7a1 1 0 00.77.973 1 1 0 001.125-.526l6-12A1 1 0 0038 31h-5v-7a1 1 0 00-1.895-.447zM36.382 33L33 39.764V36a1 1 0 00-1-1h-4.382L31 28.236V32a1 1 0 001 1z" />
</svg>