<svg xmlns="http://www.w3.org/2000/svg" class="iconsvg iconsvg-browser" fill="black" width="128" height="128"
    viewBox="-6 0 512 512.001">
    <path
        d="M492.172 432.188a7.5 7.5 0 007.5-7.5V220.672c0-9.512-7.742-17.25-17.254-17.25h-11.684v-92.016c0-8.87-7.214-16.086-16.086-16.086h-9.39V15.063C445.258 6.758 438.5 0 430.195 0H69.477c-8.309 0-15.063 6.758-15.063 15.063V95.32H45.02c-8.872 0-16.086 7.215-16.086 16.086v92.016h-11.68C7.738 203.422 0 211.164 0 220.676V494.75C0 504.262 7.738 512 17.254 512h465.164c9.512 0 17.254-7.738 17.254-17.25v-37.402a7.5 7.5 0 10-15 0v37.402a2.254 2.254 0 01-2.254 2.25H17.254A2.254 2.254 0 0115 494.75V288.215h469.672v136.472a7.5 7.5 0 007.5 7.5zM430.258 15.063v39.062H69.449L69.477 15zM45.023 110.32h144.602a7.5 7.5 0 100-15H69.418l.02-26.199h360.82v26.2H222.285a7.5 7.5 0 100 15h232.363c.602 0 1.086.488 1.086 1.085v45.371h-411.8v-45.37a1.09 1.09 0 011.09-1.087zM15 273.215v-52.543a2.256 2.256 0 012.254-2.25H284.12a7.5 7.5 0 100-15H43.934v-31.645h411.804v31.645H316.781c-4.144 0-7.5 3.355-7.5 7.5s3.356 7.5 7.5 7.5h165.637a2.256 2.256 0 012.254 2.25v52.543zm0 0" />
    <path
        d="M389.938 229.785h-17.555a7.5 7.5 0 00-7.5 7.5 7.5 7.5 0 007.5 7.5h17.555a7.5 7.5 0 007.5-7.5 7.5 7.5 0 00-7.5-7.5zm0 0M389.938 247.988h-17.555a7.5 7.5 0 100 15h17.555c4.14 0 7.5-3.355 7.5-7.5s-3.36-7.5-7.5-7.5zm0 0M443.063 233.156a7.502 7.502 0 00-10.61.004l-1.93 1.93-1.93-1.93a7.497 7.497 0 00-10.605-.004 7.497 7.497 0 000 10.606l1.93 1.933-1.93 1.934a7.497 7.497 0 000 10.605 7.464 7.464 0 005.301 2.196c1.922 0 3.84-.73 5.305-2.196l1.93-1.933 1.93 1.933a7.48 7.48 0 005.304 2.196 7.48 7.48 0 005.305-2.196c2.925-2.93 2.925-7.68 0-10.605l-1.934-1.934 1.933-1.933c2.926-2.926 2.926-7.676 0-10.606zm0 0M398.54 145.191c1.464 1.465 3.386 2.196 5.304 2.196s3.84-.73 5.304-2.196l1.036-1.035 1.035 1.035c1.46 1.465 3.383 2.196 5.3 2.196s3.84-.73 5.305-2.196a7.497 7.497 0 000-10.605l-1.039-1.035 1.04-1.035a7.502 7.502 0 000-10.61 7.5 7.5 0 00-10.606.004l-1.035 1.035-1.036-1.035a7.506 7.506 0 00-10.609-.004 7.51 7.51 0 000 10.61l1.04 1.035-1.04 1.035c-2.926 2.93-2.926 7.68 0 10.605zm0 0M369.258 44.922a7.48 7.48 0 005.305 2.195 7.471 7.471 0 005.054-1.972 7.48 7.48 0 005.059 1.972c1.918 0 3.84-.73 5.3-2.195a7.492 7.492 0 00.227-10.36c2.692-2.945 2.625-7.507-.226-10.359-2.848-2.848-7.415-2.918-10.36-.223a7.495 7.495 0 00-10.36.223 7.495 7.495 0 00-.222 10.36 7.495 7.495 0 00.223 10.359zm0 0M85.363 141.05h72.73a7.5 7.5 0 100-15h-72.73a7.5 7.5 0 100 15zm0 0M114.016 42.063h72.73a7.5 7.5 0 100-15h-72.73c-4.141 0-7.5 3.355-7.5 7.5s3.359 7.5 7.5 7.5zm0 0M135.063 239.957H62.332a7.5 7.5 0 100 15h72.73a7.5 7.5 0 100-15zm0 0M100.633 313.082c-19.192 0-34.809 15.613-34.809 34.809 0 19.191 15.617 34.804 34.809 34.804 19.187 0 34.805-15.613 34.805-34.804 0-19.196-15.614-34.809-34.805-34.809zm0 54.613c-10.922 0-19.809-8.886-19.809-19.808 0-10.918 8.887-19.805 19.809-19.805 10.918 0 19.805 8.887 19.805 19.805 0 10.922-8.887 19.808-19.805 19.808zm0 0M100.633 399.586c-19.192 0-34.809 15.613-34.809 34.805 0 19.195 15.617 34.808 34.809 34.808 19.187 0 34.805-15.613 34.805-34.808 0-19.192-15.614-34.805-34.805-34.805zm0 54.613c-10.922 0-19.809-8.887-19.809-19.808 0-10.918 8.887-19.805 19.809-19.805 10.918 0 19.805 8.887 19.805 19.805 0 10.921-8.887 19.808-19.805 19.808zm0 0M167.918 340.027h26.332a7.5 7.5 0 100-15h-26.332a7.5 7.5 0 100 15zm0 0M376.61 347.969H167.917c-4.14 0-7.5 3.355-7.5 7.5s3.36 7.5 7.5 7.5h208.691c4.141 0 7.5-3.356 7.5-7.5s-3.355-7.5-7.5-7.5zm0 0M167.918 430.422h26.332a7.5 7.5 0 100-15h-26.332a7.5 7.5 0 100 15zm0 0M167.918 453.363h208.691a7.5 7.5 0 100-15H167.918a7.5 7.5 0 100 15zm0 0" />
</svg>