<svg xmlns="http://www.w3.org/2000/svg" class="iconsvg iconsvg-chrome" fill="black" width="128" height="128"
	viewBox="0 0 512 512">
	<path
		d="M256.016 166.366c-49.491 0-89.755 40.202-89.755 89.618 0 49.49 40.264 89.754 89.755 89.754 49.419 0 89.625-40.263 89.625-89.756-.008-49.413-40.215-89.616-89.625-89.616zm0 158.974c-38.243 0-69.357-31.113-69.357-69.356 0-38.168 31.114-69.22 69.357-69.22 38.165 0 69.22 31.052 69.227 69.22 0 38.244-31.054 69.356-69.227 69.356z" />
	<path
		d="M479.466 131.281c-21.884-39.109-53.719-71.952-92.064-94.979C347.854 12.553 302.422 0 256.016 0c-72.669 0-142.15 31.08-190.629 85.269a10.201 10.201 0 00-1.301 11.776L135.311 224.5a10.2 10.2 0 0018.603-1.821c14.314-43.999 55.161-73.794 101.643-74.139 53.237-.394 213.502-2.064 215.114-2.082a10.2 10.2 0 008.795-15.177zm-224.061-3.137c-47.903.355-90.778 27.031-112.45 68.221L85.5 93.549c44.326-46.577 106.059-73.151 170.516-73.151 79.277 0 153.054 40.143 196.512 105.85-43.584.451-154.574 1.582-197.123 1.896z" />
	<path
		d="M497.058 169.936a10.197 10.197 0 00-9.597-6.749H339.273a10.199 10.199 0 00-7.22 17.404c20.321 20.364 31.512 47.14 31.512 75.394 0 28.753-14.464 52.825-28.607 72.574-28.112 39.184-92.762 162.956-95.5 168.205a10.2 10.2 0 009.042 14.916c.924 0 1.983.067 3.104.139 1.328.085 2.831.181 4.411.181 68.375 0 132.659-26.629 181.006-74.981C485.373 388.665 512 324.372 512 255.985c0-29.517-5.027-58.467-14.942-86.049zM265.327 491.42c18.378-34.712 64.535-120.765 86.21-150.978 15.098-21.081 32.426-49.731 32.426-84.458 0-26.13-8.003-51.175-22.867-72.399h119.077c7.586 23.32 11.428 47.641 11.428 72.399.001 126.804-100.668 230.533-226.274 235.436z" />
	<path
		d="M470.183 239.109c-5.632 0-10.199 4.566-10.199 10.199 0 2.129-.032 4.279-.095 6.391-.166 5.63 4.262 10.33 9.893 10.496.103.003.205.004.308.004 5.493 0 10.025-4.369 10.189-9.898.068-2.312.103-4.664.103-6.993 0-5.633-4.567-10.199-10.199-10.199zM468.233 280.654c-5.535-1.036-10.865 2.606-11.905 8.143-13.2 70.356-60.587 128.947-126.762 156.733-5.194 2.181-7.637 8.159-5.456 13.353a10.202 10.202 0 009.408 6.253c1.317 0 2.655-.257 3.944-.798 35.141-14.755 66.49-38.241 90.656-67.917 24.458-30.035 41.145-65.949 48.258-103.862 1.04-5.536-2.606-10.866-8.143-11.905zM289.281 364.716a10.2 10.2 0 00-10.507-3.854c-7.623 1.779-15.28 2.68-22.758 2.68-42.651 0-80.564-27.275-101.415-72.959-20.298-44.471-94.33-165.916-97.472-171.063a10.195 10.195 0 00-8.619-4.886 10.225 10.225 0 00-8.701 4.739C13.766 160.459 0 207.699 0 255.985 0 315.618 20.992 373.654 59.109 419.4c37.6 45.124 89.916 76.192 147.311 87.48a10.2 10.2 0 0010.804-4.912l72.702-126.078a10.202 10.202 0 00-.645-11.174zm-86.023 120.639c-106.393-24.343-182.86-119.661-182.86-229.37 0-38.851 9.695-76.976 28.168-111.228 20.715 34.345 71.756 119.852 87.479 154.297 24.261 53.153 69.11 84.887 119.971 84.887 1.928 0 3.865-.05 5.806-.148l-58.564 101.562z" />
</svg>