<svg xmlns="http://www.w3.org/2000/svg" class="iconsvg iconsvg-connection" fill="black" width="128" height="128"
    viewBox="0 -65 511.999 511">
    <path
        d="M354.484 234.16c-26.488-25.512-61.464-39.562-98.484-39.562-37.027 0-72.008 14.054-98.496 39.574a143.514 143.514 0 00-13.61 15.113c-9.703 12.469-8.542 30.36 2.692 41.653l.059.058c5.964 5.965 13.886 9.25 22.3 9.25 9.883 0 19.078-4.484 25.227-12.308a78.383 78.383 0 016.254-7.043c14.808-14.81 34.543-22.965 55.574-22.965 21.027 0 40.766 8.156 55.574 22.96a80.363 80.363 0 016.254 7.048c6.149 7.82 15.34 12.308 25.223 12.308h.004c8.414 0 16.336-3.285 22.297-9.25a.916.916 0 00.062-.059c11.234-11.292 12.395-29.183 2.688-41.652a143.667 143.667 0 00-13.618-15.125zm.266 46.227a.374.374 0 00-.043.047c-3.129 3.105-7.266 4.816-11.656 4.816-5.25 0-10.145-2.398-13.434-6.582a94 94 0 00-7.441-8.379c-17.637-17.644-41.14-27.355-66.176-27.355-25.04 0-48.54 9.714-66.18 27.355a94.388 94.388 0 00-7.441 8.383c-3.285 4.18-8.18 6.578-13.434 6.578-4.39 0-8.523-1.71-11.652-4.816a.224.224 0 01-.043-.043c-5.95-5.95-6.602-15.36-1.52-21.891a129.019 129.019 0 0112.18-13.527c23.68-22.813 54.965-35.375 88.09-35.375 33.121 0 64.402 12.558 88.078 35.367a128.35 128.35 0 0112.188 13.535c5.086 6.531 4.433 15.941-1.516 21.887zm0 0" />
    <path
        d="M256 291.29c-12.066 0-23.414 4.698-31.945 13.23s-13.23 19.875-13.23 31.94c0 12.067 4.698 23.415 13.23 31.946s19.879 13.23 31.945 13.23 23.41-4.698 31.941-13.23c17.614-17.613 17.614-46.273 0-63.886-8.53-8.532-19.875-13.23-31.941-13.23zm21.336 66.51c-5.7 5.7-13.277 8.84-21.336 8.84-8.063 0-15.64-3.14-21.34-8.84-5.7-5.698-8.84-13.277-8.84-21.335 0-8.063 3.14-15.64 8.84-21.34 5.7-5.7 13.278-8.84 21.34-8.84 8.059 0 15.637 3.14 21.336 8.84 11.766 11.766 11.766 30.91 0 42.676zm226.383-247.84a340.06 340.06 0 00-10.403-10.874C444.508 50.296 383.094 18.07 315.711 5.895 249.848-6.004 182.719 1.863 121.582 28.656a7.502 7.502 0 00-3.86 9.88c1.665 3.792 6.087 5.523 9.88 3.859 121.55-53.266 260.941-26.848 355.109 67.3 3.39 3.39 6.738 6.887 9.945 10.39 6.004 6.56 5.739 16.661-.601 23-3.27 3.267-7.621 5.024-12.23 4.907-4.56-.101-8.759-1.996-11.817-5.344a293.325 293.325 0 00-8.895-9.296C404.984 79.222 332.855 49.418 256 49.418h-.02c-76.863.004-149 29.824-203.12 83.96a294.834 294.834 0 00-8.868 9.27c-3.062 3.348-7.258 5.247-11.816 5.344-4.64.11-8.961-1.64-12.23-4.906-6.34-6.34-6.606-16.441-.606-22.996a325.3 325.3 0 019.922-10.367c21.933-21.938 46.699-40.504 73.597-55.184a7.499 7.499 0 10-7.183-13.164c-28.16 15.363-54.074 34.793-77.024 57.742a346.822 346.822 0 00-10.375 10.844c-11.433 12.492-10.968 31.7 1.063 43.73 6.02 6.016 13.96 9.305 22.441 9.305.239 0 .485-.004.727-.008 8.691-.191 16.699-3.82 22.55-10.215a273.31 273.31 0 018.407-8.789c51.289-51.304 119.66-79.562 192.515-79.566h.02c72.844 0 141.215 28.246 192.508 79.539a275.806 275.806 0 018.433 8.816c5.852 6.395 13.86 10.024 22.551 10.215a31.89 31.89 0 0023.168-9.297c12.028-12.03 12.496-31.238 1.059-43.73zm0 0" />
    <path
        d="M420.688 163.496c-40.637-38.734-93.997-61.91-150.254-65.262a7.5 7.5 0 10-.89 14.973c52.722 3.14 102.722 24.852 140.796 61.145 4.82 4.597 9.48 9.445 13.847 14.41 5.825 6.62 5.516 16.675-.703 22.894-3.293 3.29-7.656 5.02-12.316 4.871-4.688-.152-8.984-2.18-12.094-5.718a195.172 195.172 0 00-10.793-11.313c-35.55-34.355-82.527-53.273-132.277-53.277H256c-49.746 0-96.723 18.918-132.273 53.27a192.85 192.85 0 00-10.805 11.32c-3.11 3.539-7.402 5.566-12.094 5.718-4.648.157-9.023-1.582-12.316-4.875-6.211-6.21-6.563-16.222-.797-22.785a223.25 223.25 0 019.094-9.754c38.718-39.164 90.449-62.566 145.66-65.894a7.505 7.505 0 007.035-7.938c-.25-4.133-3.8-7.293-7.938-7.035-58.906 3.55-114.101 28.527-155.421 70.32-3.32 3.36-6.582 6.86-9.7 10.403-10.968 12.488-10.324 31.504 1.461 43.289 6.008 6.004 13.907 9.273 22.352 9.273.351 0 .703-.004 1.055-.015 8.746-.282 17.085-4.22 22.875-10.805a175.42 175.42 0 019.96-10.438c67.196-64.925 176.524-64.921 243.711.008 3.45 3.332 6.797 6.84 9.954 10.43 5.789 6.586 14.128 10.523 22.875 10.805 8.847.285 17.148-3.004 23.402-9.258 11.797-11.797 12.39-30.863 1.36-43.406a244.077 244.077 0 00-14.762-15.356zm0 0" />
</svg>