<svg xmlns="http://www.w3.org/2000/svg" class="iconsvg iconsvg-contact" fill="black" width="128" height="128"
    viewBox="0 0 512 512">
    <path
        d="M504.5 83.5H7.5A7.5 7.5 0 000 91v330a7.5 7.5 0 007.5 7.5h497a7.5 7.5 0 007.5-7.5V91a7.5 7.5 0 00-7.5-7.5zM15 135.22a52.689 52.689 0 008.46 7.017l89.253 59.263a7.494 7.494 0 0010.397-2.1 7.497 7.497 0 00-2.1-10.396l-89.253-59.263A37.417 37.417 0 0115 98.5h482a37.416 37.416 0 01-16.757 31.241l-203.5 135.121a37.423 37.423 0 01-41.487 0l-89.253-59.263a7.5 7.5 0 00-10.396 2.1 7.498 7.498 0 002.099 10.396L194.794 256 23.46 369.763A52.689 52.689 0 0015 376.78zm0 278.28a37.416 37.416 0 0116.757-31.241l176.596-117.257 18.607 12.355c8.82 5.857 18.93 8.785 29.04 8.785s20.22-2.928 29.041-8.785l18.607-12.355 176.596 117.257A37.419 37.419 0 01497 413.5zm482-36.72a52.675 52.675 0 00-8.459-7.016L317.206 256 488.54 142.237a52.689 52.689 0 008.46-7.017z" />
</svg>