<svg xmlns="http://www.w3.org/2000/svg" class="iconsvg iconsvg-darkmode" fill="black" width="128" height="128"
	viewBox="0 0 470 470">
	<path
		d="M136.808 298.296l-63.483 63.482a7.5 7.5 0 005.304 12.803 7.478 7.478 0 005.304-2.197l63.483-63.482c2.929-2.929 2.929-7.678 0-10.606s-7.678-2.93-10.608 0zM362.3 298.296l-63.482 63.482a7.5 7.5 0 005.304 12.803 7.478 7.478 0 005.304-2.197l63.482-63.482a7.5 7.5 0 000-10.606 7.502 7.502 0 00-10.608 0z" />
	<path
		d="M469.36 322.416c-.01-.045-.015-.09-.026-.135l-61.053-245.66c-4.699-18.906-21.602-32.11-41.104-32.11-4.143 0-7.5 3.358-7.5 7.5s3.357 7.5 7.5 7.5c12.598 0 23.514 8.524 26.548 20.729l55.926 225.032a22.822 22.822 0 00-2.23-.111h-13.537c-4.806-8.249-11.875-15.778-20.98-22.192-17.504-12.328-40.644-19.118-65.157-19.118-24.515 0-47.654 6.79-65.158 19.118-13.962 9.834-23.131 22.291-26.698 35.946-6.365-3.133-13.488-4.8-20.891-4.8s-14.525 1.667-20.891 4.8c-3.567-13.655-12.737-26.111-26.698-35.946-17.504-12.328-40.644-19.118-65.157-19.118-24.515 0-47.654 6.79-65.158 19.118-9.105 6.414-16.174 13.943-20.98 22.192H22.579c-.752 0-1.496.039-2.23.111L76.275 80.239c3.034-12.205 13.95-20.729 26.548-20.729 4.143 0 7.5-3.358 7.5-7.5s-3.357-7.5-7.5-7.5c-19.503 0-36.405 13.204-41.104 32.11L.666 322.281c-.011.045-.016.09-.026.135a22.519 22.519 0 00-.64 5.323v5.281c0 12.45 10.129 22.58 22.579 22.58h9.167c6.488 24.812 22.935 45.635 44.795 57.933.377.259.772.477 1.18.66 13.249 7.203 28.422 11.298 44.533 11.298 50.396 0 91.604-40.064 93.465-90.014 5.387-4.12 12.125-6.362 19.281-6.362s13.894 2.241 19.281 6.362c1.248 33.504 20.199 62.556 47.755 78.057.374.257.767.474 1.173.656 13.25 7.205 28.425 11.301 44.539 11.301 43.41 0 80.005-29.726 90.507-69.89h9.167c12.45 0 22.579-10.129 22.579-22.58v-5.281a22.573 22.573 0 00-.641-5.324zM22.579 340.599c-4.179 0-7.579-3.4-7.579-7.58v-5.281c0-4.179 3.4-7.579 7.579-7.579h7.506a51.425 51.425 0 00-1.37 11.791c0 2.916.141 5.8.404 8.648h-6.54zm99.675 69.891a78.095 78.095 0 01-28.59-5.411l61.046-61.045a7.5 7.5 0 00-10.607-10.606l-64.453 64.45c-21.603-14.009-35.936-38.318-35.936-65.927 0-29.28 35.232-53.101 78.539-53.101 23.283 0 44.221 6.892 58.615 17.809l-15.554 15.554a7.5 7.5 0 005.304 12.803 7.478 7.478 0 005.304-2.197l15.714-15.714c5.835 7.418 9.155 15.873 9.155 24.845.001 43.307-35.231 78.54-78.537 78.54zm225.493 0a78.095 78.095 0 01-28.59-5.411l61.045-61.045a7.5 7.5 0 00-10.607-10.606l-64.451 64.451c-21.603-14.009-35.936-38.318-35.936-65.927 0-29.28 35.232-53.101 78.539-53.101 23.283 0 44.221 6.892 58.615 17.809l-15.554 15.554a7.5 7.5 0 005.304 12.803 7.478 7.478 0 005.304-2.197l15.714-15.714c5.835 7.418 9.155 15.873 9.155 24.845 0 43.306-35.232 78.539-78.538 78.539zM455 333.02c0 4.179-3.4 7.58-7.579 7.58h-6.539c.262-2.849.404-5.732.404-8.648 0-4.001-.465-7.941-1.37-11.791h7.506c4.179 0 7.579 3.4 7.579 7.579v5.28z" />
</svg>