<svg xmlns="http://www.w3.org/2000/svg" class="iconsvg iconsvg-exit" fill="black" width="128" height="128"
    viewBox="0 -48 512 512">
    <path d=" M464.906 31.063h15.031v64.124h-15.03zm0 0M464.906 111.219h15.031v16.031h-15.03zm0 0" />
    <path
        d="M512 0H288.562v159.313h15.032V15.03h193.375v385.75H303.594V255.5h-15.031v145.281h-81.157v-92.285l-32.062-32.062v-28.95h-15.031v35.172l32.062 32.063v86.062h-25.047v-76.254l-43.98-43.98h-19.145v84.058l-35.176 36.176H34.172l44.984-45.98V135.266h97.188v59.218l50.547 50.297 10.5-10.629-46.016-45.89v-68.028H69.027L8.016 180.246v83.27h15.03v-77.047l41.079-41.078v26.84l-24.047 24.046v67.239H55.11V202.5l9.016-9.016v155.09l-51.207 52.207H0v15.031h504.984v-8.015H512zM119.234 370.832v-73.145l33.063 33.067v70.027H90.285zm0 0" />
    <path
        d="M328.64 281.656l74.255-74.25-74.254-74.254v43.192h-80.157v63.125h80.157zm-65.124-57.219v-33.062h80.156v-21.938l37.969 37.97-37.97 37.968v-20.938zm0 0M128.25 102.7c26.242 0 47.594-21.348 47.594-47.59S154.492 7.515 128.25 7.515 80.656 28.867 80.656 55.109s21.352 47.59 47.594 47.59zm0-80.157c17.957 0 32.563 14.61 32.563 32.566 0 17.953-14.606 32.563-32.563 32.563-17.953 0-32.563-14.61-32.563-32.563 0-17.957 14.61-32.566 32.563-32.566zm0 0M104.203 247.484h15.031v16.032h-15.03zm0 0M144.281 151.297v59.219l58.563 58.312 10.5-10.629-54.031-53.906v-52.996zm0 0" />
</svg>