<svg xmlns="http://www.w3.org/2000/svg" class="iconsvg iconsvg-facebook" fill="black" width="128" height="128"
	viewBox="0 0 512.001 512.001">
	<path
		d="M437.02 74.981C388.668 26.628 324.38 0 256.001 0c-67.98 0-132.951 26.912-181.02 74.981C26.629 123.333.001 187.621.001 256c0 53.306 16.227 104.399 46.926 147.757 30.02 42.398 71.526 74.321 120.03 92.318a8.098 8.098 0 009.267-2.703c1.111-1.452 1.63-3.274 1.63-5.102V342.232a8.084 8.084 0 00-8.084-8.084h-67.368v-59.284h67.368a8.084 8.084 0 008.084-8.084V256c0-70.34 66.739-132.042 142.821-132.042h35.032v59.284h-35.032c-22.814 0-43.559 6.567-58.413 18.489-16.436 13.192-25.124 31.958-25.124 54.269v10.779a8.084 8.084 0 008.084 8.084h31.872a8.084 8.084 0 000-16.168h-23.788V256c0-41.768 36.291-56.589 67.368-56.589h43.116a8.084 8.084 0 008.084-8.084v-75.453a8.084 8.084 0 00-8.084-8.084h-43.116c-39.518 0-79.573 15.72-109.895 43.129-31.659 28.619-49.095 65.937-49.095 105.082v2.695H94.316a8.084 8.084 0 00-8.084 8.084v75.453a8.084 8.084 0 008.084 8.084h67.368v126.248C74.182 439.076 16.169 351.887 16.169 256c0-132.244 107.588-239.832 239.83-239.832 132.098 0 239.833 107.734 239.833 239.833 0 132.243-107.588 239.83-239.832 239.83-.885 0-1.782-.005-2.695-.017V350.316H363.79a8.084 8.084 0 008.084-8.084v-75.453a8.084 8.084 0 00-8.084-8.084h-47.317a8.084 8.084 0 000 16.168h39.233v59.284H245.222a8.084 8.084 0 00-8.084 8.084v161.437c0 4.325 3.408 7.891 7.729 8.077 4.005.171 7.648.255 11.135.255 68.379 0 132.667-26.628 181.019-74.981 48.069-48.07 74.981-113.04 74.981-181.021-.001-68.377-26.63-132.665-74.982-181.017z" />
</svg>