<svg xmlns="http://www.w3.org/2000/svg" class="iconsvg iconsvg-firefox" fill="black" width="128" height="128"
	viewBox="0 0 512 512">
	<path
		d="M455.576 89.903c-23.871-26.416-50.311-39.43-72.616-35.73-52.037 8.673-96.363-17.296-96.803-17.556-3.435-2.038-7.78-1.704-10.821.861a9.377 9.377 0 00-2.775 10.482c28.803 76.801 58.938 88.822 104.56 107.019l3.897 1.557c16.398 6.557 25.735 13.179 27.754 19.681 2.367 7.62-4.629 19.026-13.316 32.054-13.458 20.183-18.01 48.391-19.548 65.444l-5.967-2.986c-4.025-2.015-8.778-.769-11.517 2.793-2.738 3.553-2.459 8.673.508 12.034.288.33 2.77 3.334 1.639 8.499-1.287 5.907-9.222 21.833-54.904 42.137-45.407 20.185-75.547 8.068-92.613-5.248 40.154 3.251 58.604-16.174 64.809-24.874l33.89-8.481a9.36 9.36 0 006.608-6.099 9.378 9.378 0 00-1.561-8.856c-21.279-26.605-28.752-32.31-47.751-22.566-7.528 3.846-18.912 9.671-43.974 9.671-15.042 0-25.158-3.764-30.07-11.173-6.627-10.01-3.784-26.156-.816-35.817 40.264-1.273 40.264-14.246 40.264-18.655 0-6.861-4.346-12.808-9.456-17.433 17.602-9.434 36.3-23.01 34.302-37.393-1.959-14.09-19.713-18.22-32.896-20.102-13.435-1.923-22.241-5.811-23.551-10.413-2.038-7.154 9.639-21.661 18.857-29.375a9.393 9.393 0 003.196-8.943 9.378 9.378 0 00-6.241-7.153c-25.72-8.563-50.26 7.894-60.672 16.412-13.519-4.451-35.823-1.795-51.714 1.098l-24.62-24.621a9.376 9.376 0 00-15.825 4.79l-8.885 44.413c-5.353 6.112-21.525 25.043-27.823 37.636C17.136 176.99 1.119 227.26.441 229.388a9.384 9.384 0 004.066 10.853 9.367 9.367 0 0011.504-1.383l8.118-8.119c-2.317 29.045-.678 75.487 23.999 118.677 39.463 69.063 89.311 117.025 204.303 126.604 5.532.467 11.022.687 16.48.687 114.094 0 210.792-98.378 237.177-195.126 19.544-71.662-12.483-149.595-50.512-191.678zm32.415 186.751c-25.675 94.129-122.538 189.741-234.003 180.684-107.189-8.938-152.005-51.479-189.576-117.226-35.113-61.443-17.973-133.036-17.799-133.756a9.385 9.385 0 00-4.488-10.422 9.39 9.39 0 00-4.616-1.213 9.34 9.34 0 00-6.196 2.34c4.739-13.018 10.042-26.574 14.59-35.662 5.233-10.469 21.067-29.138 26.723-35.443a9.388 9.388 0 002.216-4.423l5.944-29.71 15.743 15.742a9.36 9.36 0 008.467 2.566c20.743-4.14 43.635-5.257 47.802-2.566a9.376 9.376 0 0013.262 0c.173-.173 12.972-12.541 28.371-16.617-7.001 9.278-12.927 21.27-9.624 32.92 3.589 12.657 16.694 20.684 38.94 23.862 10.472 1.497 14.85 3.508 16.499 4.533-3.26 5.587-20.3 16.741-37.737 24.508a9.38 9.38 0 00-.398 16.946c4.263 2.149 8.81 5.372 11.43 7.79-5.774 1.461-16.329 2.583-25.982 2.587a9.383 9.383 0 00-8.612 5.682c-.624 1.447-15.021 35.722.379 59.076 8.59 13.032 23.985 19.644 45.75 19.644 29.581 0 43.937-7.345 52.518-11.732 2.001-1.026 4.744-2.427 5.49-2.482 1.557.33 4.781 3.26 9.625 8.737l-23.019 5.76c-2.569.641-4.808 2.454-6.058 4.79-.659 1.245-16.856 30.241-73.491 14.04-3.654-1.026-7.606.238-9.96 3.233a9.379 9.379 0 00-.76 10.44c.417.724 42.752 72.524 133.866 32.054 40.04-17.795 62.18-36.734 65.812-56.287.046-.238.087-.476.124-.705l1.085.54a9.38 9.38 0 0013.573-8.38c0-.449.257-44.445 17.181-69.831 11.397-17.094 20.441-32.509 15.624-48.023-3.888-12.504-16.183-22.528-38.698-31.535l-3.915-1.562c-38.785-15.468-62.171-24.793-84.952-74.397 20.084 7.528 51.63 15.4 86.926 9.515 15.596-2.543 36.395 8.545 55.614 29.806 34.717 38.416 64.024 109.31 46.33 174.177z" />
</svg>