<svg xmlns="http://www.w3.org/2000/svg" class="iconsvg iconsvg-gpu" fill="black" width="128" height="128"
    viewBox="1 -48 511.999 511">
    <path
        d="M506.89 86.473l-24.105-24.098a17.318 17.318 0 00-12.324-5.105h-60.762c-4.144 0-7.5 3.359-7.5 7.5s3.356 7.5 7.5 7.5h60.762c.648 0 1.262.253 1.723.714l24.105 24.098c.457.457.711 1.07.711 1.719v46.789l-86.383 32.402v-4.172c0-4.66-1.812-9.039-5.105-12.332l-47.727-47.726a17.33 17.33 0 00-12.332-5.106h-67.492a17.32 17.32 0 00-12.328 5.106l-13.203 13.203a7.497 7.497 0 000 10.605 7.497 7.497 0 0010.605 0l13.203-13.199a2.456 2.456 0 011.723-.715h26.246v22.274c-28.258 3.418-50.719 25.875-54.137 54.136H227.8v-26.25c0-.648.25-1.261.712-1.722l9.496-9.492a7.497 7.497 0 000-10.606 7.497 7.497 0 00-10.606 0l-9.496 9.492a17.323 17.323 0 00-5.105 12.332v67.493a17.32 17.32 0 005.105 12.328l47.727 47.726a17.32 17.32 0 0012.328 5.106h67.492a17.32 17.32 0 0012.328-5.106l47.727-47.726a17.32 17.32 0 005.105-12.328v-4.172L497 269.543v46.785c0 .652-.254 1.262-.715 1.723l-24.101 24.097c-.461.461-1.075.715-1.723.715H238.1l-78.738-78.742v-22.637c0-9.613-7.824-17.433-17.437-17.433h-32.238v-32.969h32.238c9.613 0 17.437-7.824 17.437-17.437v-22.637l78.739-78.738h136.203c4.14 0 7.5-3.36 7.5-7.5s-3.36-7.5-7.5-7.5H109.687V35.82C109.688 16.344 93.844.5 74.368.5c-9.613 0-17.433 7.82-17.433 17.434V32.93H46.633a7.5 7.5 0 00-7.5 7.5c0 4.144 3.355 7.5 7.5 7.5h10.3v10.164H45.642c-9.614 0-17.438 7.824-17.438 17.437v40.735c0 9.617 7.824 17.437 17.438 17.437h11.293v10.164H46.633a7.5 7.5 0 100 15h10.3v35.031h-5.75a7.5 7.5 0 100 15h5.75v11.825h-5.75a7.5 7.5 0 100 15h5.75v17.5H18.43a7.5 7.5 0 100 15h9.886v10.164H17.438C7.82 278.387 0 286.207 0 295.824v40.735c0 9.613 7.82 17.437 17.438 17.437h10.878v10.164H18.43a7.497 7.497 0 00-7.5 7.5 7.5 7.5 0 007.5 7.5h38.504v18.035c0 9.614 7.82 17.438 17.433 17.438 19.477 0 35.32-15.844 35.32-35.32v-21.45h73.985v19.102c0 9.613 7.82 17.437 17.433 17.437h51.954c9.613 0 17.433-7.82 17.433-17.433v-19.106h20.531v19.106c0 9.613 7.82 17.433 17.438 17.433H443.867c9.617 0 17.438-7.824 17.438-17.437v-19.102h9.156c4.652 0 9.031-1.816 12.324-5.105l24.106-24.098A17.327 17.327 0 00512 316.328V98.801c0-4.656-1.813-9.035-5.11-12.328zM146.56 142.602a7.495 7.495 0 00-2.196 5.3v25.746a2.44 2.44 0 01-2.437 2.434h-32.238V72.273h107.199zM45.64 118.703a2.44 2.44 0 01-2.438-2.437V75.53a2.44 2.44 0 012.438-2.437h11.293v45.61zM17.438 338.996A2.44 2.44 0 0115 336.56v-40.735a2.44 2.44 0 012.438-2.437h10.878v45.61zm25.878 25.164v-95.937h13.618v95.937zm51.372 15.152c0 11.204-9.114 20.32-20.32 20.32a2.437 2.437 0 01-2.434-2.437V17.934c0-1.34 1.09-2.434 2.433-2.434 11.207 0 20.32 9.113 20.32 20.32v227.047c0 4.14 3.36 7.5 7.5 7.5s7.5-3.36 7.5-7.5v-23.816h32.239a2.437 2.437 0 012.437 2.433v25.743c0 1.992.79 3.898 2.196 5.304l70.332 70.328H109.688v-44.593c0-4.145-3.356-7.5-7.5-7.5a7.5 7.5 0 00-7.5 7.5zm103.984-21.453h16.133v19.106a2.44 2.44 0 01-2.438 2.433h-11.262a2.436 2.436 0 01-2.433-2.433zm56.82 19.11a2.439 2.439 0 01-2.433 2.433h-23.446c.114-.797.192-1.609.192-2.437v-19.102h25.687zm50.531 0v-19.106h109.149v19.102c0 .828.078 1.64.191 2.437H308.461a2.44 2.44 0 01-2.438-2.433zm140.282-.004a2.44 2.44 0 01-2.438 2.433H432.61a2.44 2.44 0 01-2.437-2.433v-19.106h16.133zM345.453 123.656c.64 0 1.27.262 1.723.715l47.726 47.727c.461.457.715 1.07.715 1.722v26.246h-22.273c-3.418-28.257-25.88-50.718-54.137-54.136v-22.274zm-65.96 91.41c2.847 12.227 12.487 21.868 24.714 24.715v14.285c-19.977-3.21-35.793-19.023-39.004-39zm32.214-25.582c9.973 0 18.082 8.11 18.082 18.082 0 9.97-8.11 18.082-18.082 18.082-9.973 0-18.082-8.113-18.082-18.082 0-9.972 8.11-18.082 18.082-18.082zm7.5 50.297c12.227-2.847 21.867-12.488 24.715-24.715h14.285c-3.21 19.977-19.023 35.79-39 39zm24.715-39.715c-2.848-12.226-12.488-21.867-24.715-24.714v-14.286c19.977 3.211 35.79 19.024 39.004 39zm-39.715-39.003v14.289c-12.227 2.843-21.867 12.484-24.715 24.714h-14.285c3.207-19.976 19.023-35.793 39-39.003zm-27.969 129.699l-47.726-47.727a2.42 2.42 0 01-.711-1.722v-26.247h22.27c3.417 28.258 25.878 50.715 54.136 54.137v22.27h-26.246c-.64 0-1.27-.258-1.723-.711zm118.664-47.727l-47.726 47.727a2.453 2.453 0 01-1.723.71h-26.246v-22.269c28.258-3.422 50.715-25.879 54.137-54.137h22.27v26.246a2.42 2.42 0 01-.712 1.723zm15.711-21.914v-27.11L497 161.61v38.457h-32.242a7.497 7.497 0 00-7.5 7.5 7.5 7.5 0 007.5 7.5H497v38.454zm0 0" />
    <path
        d="M132.242 107.734h14.574a7.5 7.5 0 100-15h-14.574a7.5 7.5 0 100 15zm0 0M132.242 322.398h14.574c4.141 0 7.5-3.359 7.5-7.5 0-4.14-3.359-7.5-7.5-7.5h-14.574c-4.14 0-7.5 3.36-7.5 7.5 0 4.141 3.36 7.5 7.5 7.5zm0 0" />
</svg>