<svg xmlns="http://www.w3.org/2000/svg" class="iconsvg iconsvg-hourglass" xmlns="http://www.w3.org/2000/svg"
	fill="black" width="128" height="128" viewBox="0 0 512 512">
	<path
		d="M400 496h-8v-71.38c0-17.938-5.456-35.201-15.777-49.923l-82.552-117.75 82.569-118.693C386.55 123.432 392 106.055 392 88V16h8a8 8 0 000-16H112a8 8 0 000 16h8v72c0 18.055 5.45 35.432 15.76 50.253l82.569 118.693-82.552 117.75C125.456 389.419 120 406.682 120 424.62V496h-8a8 8 0 000 16h288a8 8 0 000-16zm-264-71.38c0-14.634 4.453-28.722 12.878-40.739l85.76-122.324a8.002 8.002 0 00.017-9.161l-85.76-123.28C140.459 116.99 136 102.772 136 88V16h240v72c0 14.772-4.459 28.99-12.895 41.117l-85.76 123.28a7.998 7.998 0 00.017 9.161l85.76 122.324C371.547 395.898 376 409.986 376 424.62V496H136v-71.38z" />
	<path
		d="M304.005 464h-16.001a8 8 0 000 16h16.001a8 8 0 000-16zM256 249.314a8 8 0 006.766-3.731c1.774-2.668 34.496-49.8 56.188-81.018A8.001 8.001 0 00312.385 152h-112.77a8 8 0 00-6.569 12.564c21.693 31.218 54.415 78.35 56.188 81.018a8 8 0 006.766 3.732zM297.085 168c-22.897 32.959-34.837 50.177-41.085 59.214-6.248-9.037-18.188-26.255-41.085-59.214h82.17z" />
	<path
		d="M312.401 339.408a8 8 0 00-6.55-3.408h-99.702a7.997 7.997 0 00-6.55 3.408l-37.62 53.659C155.451 402.378 152 413.29 152 424.62V472a8 8 0 008 8h96.003a8 8 0 000-16H168v-39.38c0-8.027 2.448-15.762 7.08-22.369L210.311 352h91.379l35.23 50.251c4.632 6.607 7.081 14.342 7.081 22.369V464h-8a8 8 0 000 16h16a8 8 0 008-8v-47.38c0-11.331-3.451-22.242-9.979-31.554l-37.621-53.658zM330.077 134.568a7.965 7.965 0 004.562 1.433 7.99 7.99 0 006.574-3.432l8.758-12.59A55.74 55.74 0 00360 88v-8a8 8 0 00-16 0v8a39.815 39.815 0 01-7.164 22.843l-8.758 12.59a8 8 0 001.999 11.135zM352 56a8 8 0 008-8v-8a8 8 0 00-16 0v8a8 8 0 008 8z" />
</svg>