<svg xmlns="http://www.w3.org/2000/svg" class="iconsvg iconsvg-ie" fill="black" width="128" height="128"
	viewBox="0 0 512 512">
	<path
		d="M413.459 242.398c-14.349-64.39-71.956-112.097-139.837-112.097-67.931 0-125.5 47.761-139.837 112.097-2.085 9.357 5.041 18.263 14.638 18.263h250.398c9.586 0 16.726-8.894 14.638-18.263zm-244.638-11.736c17.631-42.774 59.206-70.362 104.801-70.362 45.658 0 87.193 27.643 104.801 70.362H168.821z" />
	<path
		d="M471.664 140.777c13.801-50.362 7.856-91.509-17.013-116.38-29.107-29.113-79.241-32.28-141.168-8.913-14.191 5.355-28.671 11.977-43.269 19.734-62.397.869-120.931 25.563-165.149 69.788-44.22 44.226-68.91 102.769-69.778 165.175C5.149 326.91-20.856 409.313 24.468 454.643c29.445 29.451 76.19 28.04 116.373 17.022C179.786 497.898 225.619 512 273.622 512c100.49 0 185.929-61.977 221.098-149.012 3.977-9.843-3.277-20.62-13.905-20.62H370.684a14.998 14.998 0 00-11.348 5.192c-21.589 24.986-52.831 39.316-85.714 39.316-45.658 0-87.193-27.643-104.801-70.362h326.461a14.997 14.997 0 0014.883-13.154A242.79 242.79 0 00512 273.588c0-48.014-14.103-93.857-40.336-132.811zm-38.222-95.168c13.587 13.589 18.346 36.144 14.082 64.933-32.439-34.555-73.317-58.168-118.312-68.868 47.132-16.725 84.94-15.359 104.23 3.935zM205.564 76.506c-47.657 35.53-93.137 80.902-128.995 129.014 20.396-59.221 67.785-107.927 128.995-129.014zM45.677 433.431c-19.292-19.295-20.657-57.108-3.934-104.243 10.686 44.949 34.27 85.85 68.858 118.327-28.784 4.265-51.337-.495-64.924-14.084zm435.934-146.916H148.424c-9.586 0-16.726 8.894-14.638 18.263 14.35 64.39 71.957 112.097 139.837 112.097 39.267 0 76.673-16.138 103.698-44.508h79.91c-34.356 63.77-102.513 109.634-183.608 109.634-114.072 0-206.143-91.243-208.332-204.27 45.844-82.712 129.61-166.563 212.473-212.505 54.11 1.048 104.827 22.606 143.209 60.992 39.357 39.365 61.033 91.702 61.033 147.37a213.892 213.892 0 01-.395 12.927z" />
</svg>