<svg xmlns="http://www.w3.org/2000/svg" class="iconsvg iconsvg-info" fill="black" width="128" height="128"
    viewBox="0 0 512 512">
    <path
        d="M308.5 512h-255C41.093 512 31 501.906 31 489.5V114.2c0-12.406 10.093-22.5 22.5-22.5h43.11c4.142 0 7.5 3.357 7.5 7.5s-3.358 7.5-7.5 7.5H53.5c-4.136 0-7.5 3.364-7.5 7.5v375.3c0 4.136 3.364 7.5 7.5 7.5h255c4.136 0 7.5-3.364 7.5-7.5V315H143.5c-12.407 0-22.5-10.094-22.5-22.5v-270C121 10.094 131.093 0 143.5 0h225C380.907 0 391 10.094 391 22.5v75c0 4.143-3.358 7.5-7.5 7.5s-7.5-3.357-7.5-7.5v-75c0-4.136-3.364-7.5-7.5-7.5h-225c-4.136 0-7.5 3.364-7.5 7.5v270c0 4.136 3.364 7.5 7.5 7.5h225c4.136 0 7.5-3.364 7.5-7.5v-165a7.5 7.5 0 017.5-7.5h45c4.142 0 7.5 3.357 7.5 7.5s-3.358 7.5-7.5 7.5H391v30h37.5c4.142 0 7.5 3.357 7.5 7.5s-3.358 7.5-7.5 7.5H391v30h37.5c4.142 0 7.5 3.357 7.5 7.5s-3.358 7.5-7.5 7.5H391v30h37.5c4.142 0 7.5 3.357 7.5 7.5s-3.358 7.5-7.5 7.5H391v22.5c0 2.628-.453 5.153-1.285 7.5H428.5c4.142 0 7.5 3.357 7.5 7.5s-3.358 7.5-7.5 7.5H331v30h97.5c4.142 0 7.5 3.357 7.5 7.5s-3.358 7.5-7.5 7.5H331v47h127.5c4.136 0 7.5-3.364 7.5-7.5V69.2c0-4.136-3.364-7.5-7.5-7.5h-45c-4.142 0-7.5-3.357-7.5-7.5s3.358-7.5 7.5-7.5h45c12.407 0 22.5 10.094 22.5 22.5v330.3c0 12.406-10.093 22.5-22.5 22.5H331v45h82.5c4.136 0 7.5-3.364 7.5-7.5v-15c0-4.143 3.358-7.5 7.5-7.5s7.5 3.357 7.5 7.5v15c0 12.406-10.093 22.5-22.5 22.5H331v7.5c0 12.406-10.093 22.5-22.5 22.5zm45-227h-195a7.5 7.5 0 01-7.5-7.5v-26.054c0-38.539 25.48-47.357 44.085-53.796 15.355-5.314 24.074-8.894 25.611-20.443-16.552-11.308-27.437-30.326-27.437-51.841V94.44c0-34.595 28.146-62.74 62.741-62.74s62.741 28.146 62.741 62.74v30.926c0 21.515-10.884 40.533-27.437 51.841 1.537 11.55 10.256 15.129 25.611 20.443C335.52 204.089 361 212.907 361 251.446V277.5a7.5 7.5 0 01-7.5 7.5zM166 270h180v-18.554c0-27.857-15.752-33.309-33.991-39.621-13.47-4.661-29.709-10.283-34.534-27.505-6.703 2.45-13.935 3.786-21.475 3.786s-14.772-1.336-21.475-3.786c-4.825 17.222-21.064 22.844-34.534 27.505C181.752 218.138 166 223.589 166 251.446zm90-223.3c-26.324 0-47.741 21.416-47.741 47.74v30.926c0 26.324 21.417 47.74 47.741 47.74s47.741-21.416 47.741-47.74V94.44c0-26.324-21.417-47.74-47.741-47.74z" />
</svg>