<svg xmlns="http://www.w3.org/2000/svg" class="iconsvg iconsvg-ip" fill="black" width="128" height="128"
    viewBox="-72 0 512 512">
    <path
        d="M150.813 258.871a7.498 7.498 0 001.226-10.535C98.406 180.555 87.145 136.629 87.145 111.71c0-53.328 43.382-96.711 96.71-96.711 53.325 0 96.708 43.383 96.708 96.71 0 65.927-75.778 151.235-96.715 173.544a523.58 523.58 0 01-10.41-11.399 7.497 7.497 0 00-10.586-.628 7.498 7.498 0 00-.633 10.586c9.664 10.89 16.062 17.304 16.332 17.57a7.501 7.501 0 005.304 2.199 7.499 7.499 0 005.301-2.2c4.348-4.343 106.406-107.35 106.406-189.671C295.563 50.113 245.453 0 183.856 0c-61.597 0-111.71 50.113-111.71 111.71 0 49.454 37.05 106.657 68.132 145.935a7.501 7.501 0 0010.536 1.226zm0 0" />
    <path
        d="M352.195 320.645H340.54c-7.25-36.2-26.875-68.805-55.746-92.352a7.498 7.498 0 00-10.55 1.074 7.494 7.494 0 001.07 10.551c25.378 20.7 42.874 49.113 49.898 80.727h-5.082c-8.555 0-15.516 6.96-15.516 15.515v8.535h-89.21v-8.535c0-8.555-6.958-15.515-15.516-15.515h-32.063c-8.554 0-15.515 6.96-15.515 15.515v8.535H63.098v-8.535c0-8.555-6.961-15.515-15.516-15.515h-5.078c7.023-31.614 24.516-60.028 49.898-80.727a7.506 7.506 0 001.07-10.555 7.501 7.501 0 00-10.55-1.07c-28.871 23.547-48.496 56.152-55.746 92.355h-11.66C6.96 320.648 0 327.605 0 336.164v32.063c0 8.554 6.96 15.515 15.516 15.515h11.656c6.957 34.684 25.41 66.293 52.426 89.57C108.558 498.262 145.582 512 183.855 512c38.27 0 75.297-13.738 104.254-38.688 27.02-23.277 45.47-54.886 52.43-89.57h11.656c8.555 0 15.516-6.96 15.516-15.515V336.16c0-8.555-6.961-15.515-15.516-15.515zM167.31 336.16c0-.281.23-.515.515-.515h32.063c.285 0 .515.23.515.515v32.067c0 .285-.23.515-.515.515h-32.063a.515.515 0 01-.515-.515zM15 368.227V336.16c0-.281.23-.515.516-.515h32.062c.285 0 .52.234.52.515v32.067a.518.518 0 01-.52.515H15.516a.515.515 0 01-.516-.515zm263.32 93.722C252.082 484.551 218.535 497 183.855 497c-34.68 0-68.226-12.45-94.464-35.05-23.72-20.434-40.153-47.95-46.887-78.208h5.078c8.555 0 15.516-6.96 15.516-15.515v-8.536h89.21v8.536c0 8.554 6.958 15.515 15.516 15.515h32.063c8.554 0 15.515-6.96 15.515-15.515v-8.536h89.211v8.536c0 8.554 6.961 15.515 15.516 15.515h5.078c-6.734 30.258-23.168 57.774-46.887 78.207zm74.39-93.722c0 .285-.23.515-.515.515H320.13a.515.515 0 01-.516-.515V336.16c0-.281.23-.515.516-.515h32.066c.285 0 .516.234.516.515zm0 0M144.29 79.645v72.144a7.5 7.5 0 007.5 7.5c4.144 0 7.5-3.355 7.5-7.5V79.645a7.5 7.5 0 10-15 0zm0 0M191.355 151.79v-24.563h12.54c15.187 0 27.542-12.356 27.542-27.54 0-15.187-12.355-27.542-27.542-27.542h-20.04c-4.14 0-7.5 3.359-7.5 7.5v72.144a7.5 7.5 0 1015 0zm0-64.645h12.54c6.917 0 12.542 5.625 12.542 12.543 0 6.914-5.625 12.539-12.542 12.539h-12.54zm0 0" />
</svg>