<svg xmlns="http://www.w3.org/2000/svg" class="iconsvg iconsvg-lang" fill="black" width="128" height="128"
	viewBox="0 0 512 512">
	<path
		d="M477.488 125.53l-17.103-59.858a8.015 8.015 0 00-7.708-5.814h-8.551a8.016 8.016 0 00-7.708 5.814l-17.102 59.858a8.017 8.017 0 0015.417 4.405l3.225-11.288h20.889l3.225 11.289a8.02 8.02 0 007.705 5.816 8.019 8.019 0 007.711-10.222zm-34.951-22.916l5.864-20.523 5.864 20.523h-11.728z" />
	<path
		d="M478.33 17.102h-46.402c.13-3.659-.966-7.267-3.209-10.328C425.564 2.469 420.693 0 415.355 0h-99.497c-18.566 0-33.67 15.105-33.67 33.67v94.063c0 15.805 10.945 29.101 25.653 32.706v35.703a8.015 8.015 0 0013.686 5.668l40.406-40.407h8.877c-.13 3.659.966 7.267 3.209 10.328 3.155 4.305 8.026 6.775 13.363 6.775h90.947c18.566 0 33.67-15.105 33.67-33.67V50.772c.001-18.565-15.104-33.67-33.669-33.67zM375.242 145.37h-16.628a8.012 8.012 0 00-5.668 2.348l-29.071 29.071v-23.402a8.017 8.017 0 00-8.017-8.017c-9.725 0-17.637-7.912-17.637-17.637V33.67c0-9.725 7.912-17.637 17.637-17.637h99.497c.088 0 .27 0 .431.218.16.219.106.393.079.477l-27.483 87.031a7.998 7.998 0 00-1.136-.573c-6.798-2.718-12.732-6.302-17.792-10.704 9-12.476 12.331-25.564 13.56-33.694h9.805a8.017 8.017 0 000-16.034H366.63v-.534a8.017 8.017 0 00-16.034 0v.534h-26.188a8.017 8.017 0 000 16.034h42.318c-1.075 5.501-3.35 13.164-8.132 20.872a59.695 59.695 0 01-3.505-6.544 8.016 8.016 0 00-10.623-3.961 8.016 8.016 0 00-3.961 10.623 73.935 73.935 0 007.321 12.596c-4.735 4.155-10.583 7.907-17.845 10.812a8.017 8.017 0 005.955 14.888c9.268-3.708 16.734-8.477 22.757-13.761 6.486 5.704 14.058 10.345 22.595 13.761a8.02 8.02 0 002.399.548l-8.445 26.748zm120.725-.535c0 9.725-7.912 17.637-17.637 17.637h-90.946c-.088 0-.27 0-.431-.219a.485.485 0 01-.078-.477l40.622-128.64h50.832c9.725 0 17.637 7.912 17.637 17.637v94.062zM328.274 411.931l-74.947-23.06a9.04 9.04 0 01-6.413-8.684v-29.22l4.365-3.637a42.219 42.219 0 0014.662-25.765l.998-6.24h6.162c13.851 0 25.119-11.268 25.119-25.119v-17.102c0-12.298-8.886-22.554-20.574-24.699l7.798-48.738a76.311 76.311 0 00-17.312-61.662 76.318 76.318 0 00-58.153-26.839h-61.88a76.313 76.313 0 00-58.154 26.837 76.317 76.317 0 00-17.312 61.662l7.798 48.738c-11.687 2.146-20.573 12.402-20.573 24.7v17.102c0 13.851 11.268 25.119 25.119 25.119h6.162l.998 6.24a42.219 42.219 0 0014.662 25.765l4.365 3.638v29.219a9.038 9.038 0 01-6.413 8.684l-74.947 23.06C11.978 417.417 0 433.634 0 452.285v34.596C0 500.732 11.268 512 25.119 512H332.96c13.851 0 25.119-11.268 25.119-25.119v-34.596c0-18.651-11.978-34.868-29.805-40.354zm-46.086-138.829v17.102c0 5.01-4.076 9.086-9.086 9.086h-3.597l5.606-35.042c4.047.919 7.077 4.536 7.077 8.854zM84.977 299.29c-5.01 0-9.086-4.076-9.086-9.086v-17.102c0-4.318 3.03-7.935 7.075-8.854l5.607 35.042h-3.596zm3.49-102.157a60.306 60.306 0 0113.679-48.728 60.309 60.309 0 0145.954-21.207h61.88a60.305 60.305 0 0145.954 21.207 60.306 60.306 0 0113.68 48.728l-8.135 50.85h-6.785a.532.532 0 01-.527-.447l-6.169-37.017a16.516 16.516 0 00-16.342-13.843H126.427a16.516 16.516 0 00-16.342 13.844l-6.169 37.016a.534.534 0 01-.527.447h-6.785l-8.137-50.85zm19.502 121.898l-8.802-55.014h4.22a16.516 16.516 0 0016.342-13.844l6.169-37.016a.534.534 0 01.527-.447h105.228c.263 0 .484.188.527.447l6.169 37.017a16.516 16.516 0 0016.342 13.843h4.22l-6.161 38.51c-1.87 2.104-21.343 22.417-73.71 22.417a8.017 8.017 0 000 16.034c33.609 0 55.601-7.707 69.003-15.148a26.185 26.185 0 01-7.027 9.183l-34.32 28.6a17.669 17.669 0 01-11.291 4.087h-32.732a17.676 17.676 0 01-11.291-4.087l-34.32-28.6a26.201 26.201 0 01-9.093-15.982zm1.497 85.165c10.606-3.263 17.732-12.911 17.732-24.008V364.33l13.92 11.601a33.738 33.738 0 0021.555 7.804h32.732a33.736 33.736 0 0021.555-7.804l13.92-11.602v15.858c0 11.097 7.126 20.745 17.732 24.008l4.047 1.245c-28.422 43.606-66.2 54.402-73.639 56.15-7.513-1.723-45.08-12.315-73.604-56.149l4.05-1.245zm-49.608 91.771H25.119c-5.01 0-9.086-4.076-9.086-9.086v-34.596c0-4.537 1.157-8.833 3.212-12.596l34.267 28.555a17.591 17.591 0 016.346 13.549v14.174zm222.33-14.173v14.172H75.891v-14.172a33.578 33.578 0 00-12.115-25.866l-32.762-27.302a26.524 26.524 0 013.505-1.371l55.007-16.924c35.591 57.965 86.007 66.991 88.194 67.355a7.973 7.973 0 002.636 0c2.187-.365 52.605-9.39 88.194-67.355l55.007 16.925c1.216.374 2.381.842 3.505 1.371l-32.76 27.302a33.578 33.578 0 00-12.114 25.865zm59.858 5.087c0 5.01-4.076 9.086-9.086 9.086h-34.739v-14.172c0-5.25 2.313-10.189 6.346-13.549l34.267-28.555a26.206 26.206 0 013.212 12.596v34.594z" />
</svg>