<svg xmlns="http://www.w3.org/2000/svg" class="iconsvg iconsvg-location" fill="black" width="128" height="128"
	viewBox="0 0 512 512">
	<path
		d="M256 0C152.612 0 68.5 84.112 68.5 187.5c0 38.607 11.653 75.694 33.673 107.215l147.654 214.044a7.5 7.5 0 0012.346 0l147.628-214.007C431.847 263.194 443.5 226.107 443.5 187.5 443.5 84.112 359.388 0 256 0zm141.48 286.197L256 491.292 114.495 286.161C94.218 257.135 83.5 223.019 83.5 187.5 83.5 92.383 160.883 15 256 15s172.5 77.383 172.5 172.5c0 35.519-10.718 69.635-31.02 98.697z" />
	<path
		d="M353.5 187.5c0-53.762-43.738-97.5-97.5-97.5s-97.5 43.738-97.5 97.5S202.238 285 256 285s97.5-43.738 97.5-97.5zm-180 0c0-45.491 37.009-82.5 82.5-82.5s82.5 37.009 82.5 82.5S301.491 270 256 270s-82.5-37.009-82.5-82.5z" />
	<path
		d="M256 30c-36.257 0-71.657 12.627-99.676 35.556-3.206 2.623-3.678 7.348-1.055 10.554s7.348 3.679 10.554 1.055C191.17 56.423 223.196 45 256 45c78.575 0 142.5 63.925 142.5 142.5S334.575 330 256 330s-142.5-63.925-142.5-142.5c0-32.805 11.423-64.831 32.165-90.177a7.5 7.5 0 00-11.608-9.5C111.127 115.843 98.5 151.242 98.5 187.5 98.5 274.346 169.154 345 256 345s157.5-70.654 157.5-157.5S342.846 30 256 30z" />
</svg>