<svg xmlns="http://www.w3.org/2000/svg" class="prefix__iconsvg prefix__iconsvg-logo" width="128" height="128"
	viewBox="0 0 512 512">
	<path
		d="M414.007 375.317c-29.013-22.955-106.069-83.947-117.419-123.392-8.128-28.245-37.739-44.608-66.005-36.523-28.267 8.149-44.651 37.739-36.523 66.005 19.2 66.752 89.429 126.656 153.749 177.557a10.622 10.622 0 006.613 2.304c3.157 0 6.272-1.387 8.363-4.075 3.648-4.608 2.88-11.328-1.749-14.976-61.717-48.853-129.024-106.048-146.475-166.72-4.864-16.939 4.971-34.709 21.909-39.595 16.939-4.843 34.731 4.949 39.616 21.909 11.669 40.555 69.589 90.624 124.693 134.229 4.651 3.669 11.328 2.88 14.976-1.749 3.649-4.606 2.881-11.326-1.748-14.974z" />
	<path
		d="M444.044 279.744c-24.917-20.224-61.333-50.304-66.645-55.296-22.613-70.741-98.581-111.488-170.347-91.051-35.627 10.24-65.109 33.728-83.051 66.155-17.941 32.384-22.165 69.845-11.947 105.451 17.493 60.821-20.053 77.696-31.979 81.429a10.631 10.631 0 00-6.997 13.355c1.408 4.565 5.632 7.488 10.176 7.488 1.067 0 2.133-.171 3.157-.491 32.64-10.197 64.299-44.523 46.123-107.691-8.64-30.123-5.056-61.824 10.112-89.237 15.189-27.413 40.149-47.296 70.272-55.936 61.248-17.472 126.165 17.813 144.661 78.677.256.811.597 1.6 1.045 2.347 1.109 1.835 3.392 5.696 71.979 61.355 4.565 3.733 11.307 3.029 14.997-1.557 3.713-4.566 3.009-11.286-1.556-14.998z" />
	<path
		d="M433.249 332.971c-79.168-62.677-92.715-82.539-95.68-92.843-14.613-50.816-67.947-80.277-118.784-65.728-49.237 14.165-77.568 64.939-65.899 118.144 21.547 98.091 5.461 120.789-38.741 134.613-5.632 1.749-8.768 7.744-6.997 13.355A10.668 10.668 0 00117.324 448c1.045 0 2.133-.149 3.157-.448 61.76-19.285 75.179-59.541 53.227-159.552-9.237-42.048 12.672-82.048 50.944-93.056 39.659-11.349 81.045 11.605 92.416 51.115 4.16 14.507 15.552 34.496 102.955 103.659 4.651 3.691 11.328 2.859 14.976-1.749 3.647-4.63 2.879-11.35-1.75-14.998z" />
	<path
		d="M391.521 408.448c-4.928-4.928-13.611-11.52-24.597-19.861-36.096-27.392-96.512-73.216-111.36-124.885-1.643-5.653-7.467-8.917-13.205-7.296a10.682 10.682 0 00-7.296 13.205c16.811 58.496 80.768 107.008 118.976 136 9.92 7.531 18.496 14.037 22.4 17.941a10.716 10.716 0 007.552 3.115c2.731 0 5.461-1.045 7.531-3.136 4.159-4.16 4.159-10.923-.001-15.083zm-74.667 64.021c-2.325-2.347-4.8-5.803-7.637-9.643-10.603-14.4-26.624-36.16-53.227-36.16-36.181 0-41.877 61.653-42.667 74.005-.363 5.888 4.117 10.944 9.984 11.307.235.022.449.022.683.022 5.589 0 10.283-4.352 10.645-10.005C236.001 479.936 244.428 448 255.99 448c15.829 0 27.029 15.232 36.032 27.499 3.584 4.843 6.805 9.109 9.749 12.053 4.16 4.16 10.923 4.16 15.083 0s4.16-10.923 0-15.083zM212.79 370.091c-1.792-5.611-7.787-8.789-13.397-6.912-5.611 1.792-8.704 7.787-6.912 13.397 9.109 28.523-8.832 84.501-35.797 93.269-5.589 1.835-8.661 7.829-6.848 13.44a10.676 10.676 0 0013.419 6.869c41.066-13.333 60.863-84.629 49.535-120.063z" />
	<path
		d="M440.63 224.512c-13.333-4.331-23.808-21.248-35.947-40.811-25.707-41.515-60.928-98.368-159.36-98.368-99.989 0-181.333 81.344-181.333 181.333 0 5.888 4.779 10.667 10.667 10.667s10.667-4.779 10.667-10.667c0-88.235 71.765-160 160-160 86.549 0 116.864 48.939 141.227 88.256 14.336 23.147 26.709 43.136 47.488 49.877a10.616 10.616 0 0013.44-6.848c1.834-5.61-1.238-11.626-6.849-13.439zM94.86 336.555c-3.84-7.68-9.536-21.653-9.536-27.221 0-5.888-4.779-10.667-10.667-10.667s-10.667 4.779-10.667 10.667c0 12.544 9.813 32.832 11.776 36.779a10.673 10.673 0 009.557 5.888c1.621 0 3.243-.363 4.757-1.131 5.27-2.646 7.425-9.046 4.78-14.315z" />
	<path
		d="M403.766 111.808c-14.635-24.128-79.253-69.141-169.109-69.141-95.552 0-146.773 49.899-158.443 69.141-3.072 5.035-1.451 11.584 3.584 14.635s11.605 1.472 14.635-3.584C103.713 107.584 149.366 64 234.657 64c82.005 0 140.352 41.536 150.869 58.859 2.005 3.328 5.525 5.141 9.131 5.141 1.899 0 3.797-.491 5.525-1.536 5.035-3.072 6.656-9.621 3.584-14.656z" />
	<path
		d="M355.468 21.931c-4.139-1.429-8.064-2.901-11.989-4.352C320.225 8.939 296.182 0 234.657 0c-56.384 0-70.528 7.253-88.448 16.427-3.627 1.856-7.445 3.819-11.947 5.845-5.355 2.411-7.765 8.725-5.355 14.101 2.411 5.355 8.747 7.787 14.101 5.355 4.885-2.176 9.045-4.309 12.971-6.315 15.915-8.171 27.456-14.08 78.677-14.08 57.685 0 78.912 7.893 101.376 16.256 4.075 1.493 8.171 3.029 12.48 4.501 1.152.384 2.325.576 3.477.576a10.7 10.7 0 0010.091-7.189c1.921-5.568-1.044-11.626-6.612-13.546zm92.01 156.16c-5.653-17.707-21.717-43.904-22.4-45.013-3.093-5.035-9.664-6.613-14.677-3.499-5.013 3.093-6.592 9.664-3.499 14.677.171.235 15.381 25.109 20.267 40.32A10.65 10.65 0 00437.324 192c1.067 0 2.155-.171 3.243-.512 5.61-1.792 8.703-7.787 6.911-13.397z" />
</svg>