<svg xmlns="http://www.w3.org/2000/svg" class="iconsvg iconsvg-opera" fill="black" width="128" height="128"
	viewBox="0 0 512 512">
	<path
		d="M255.11,51.24c-89.56,0-102.12,107.06-102.12,197.04c0,94.51,9.24,210.23,102.44,210.23   c96.35,0,101.71-121.13,103.39-212.36C357.79,154.92,346.19,51.24,255.11,51.24z M255.43,428.51   c-69.24,0-72.44-109.98-72.44-180.23c0-70.03,5.98-167.04,72.12-167.04c69.39,0,71.26,94.79,73.72,164.35   C327.05,341.99,320.1,428.51,255.43,428.51z M255.11,51.24c-89.56,0-102.12,107.06-102.12,197.04   c0,94.51,9.24,210.23,102.44,210.23c96.35,0,101.71-121.13,103.39-212.36C357.79,154.92,346.19,51.24,255.11,51.24z M255.43,428.51   c-69.24,0-72.44-109.98-72.44-180.23c0-70.03,5.98-167.04,72.12-167.04c69.39,0,71.26,94.79,73.72,164.35   C327.05,341.99,320.1,428.51,255.43,428.51z M252.78,0.06C112.47,0.06,0,96.02,0,256.04c0,159.37,116.18,255.9,253.96,255.9   c140.02,0,258.04-99.37,258.04-264.81C512,94.38,391.12,0.06,252.78,0.06z M253.96,481.94C146.09,481.94,30,411.25,30,256.04   c0-143.57,99.2-225.98,222.78-225.98C366.69,30.06,482,104.62,482,247.13C482,408.46,363.79,481.94,253.96,481.94z M255.11,51.24   c-89.56,0-102.12,107.06-102.12,197.04c0,94.51,9.24,210.23,102.44,210.23c96.35,0,101.71-121.13,103.39-212.36   C357.79,154.92,346.19,51.24,255.11,51.24z M255.43,428.51c-69.24,0-72.44-109.98-72.44-180.23c0-70.03,5.98-167.04,72.12-167.04   c69.39,0,71.26,94.79,73.72,164.35C327.05,341.99,320.1,428.51,255.43,428.51z" />
</svg>