<svg xmlns="http://www.w3.org/2000/svg" class="iconsvg iconsvg-firefox" fill="black" width="128" height="128"
    viewBox="0 0 512 512">
    <path
        d="M343.886 99.809c-7.694-7.882-16.357-9.038-20.436-9.265h-134.9c-15.736-.335-30.328 16.892-28.759 31.295v58.791c0 4.143 3.358 7.5 7.5 7.5s7.5-3.357 7.5-7.5v-15.088h162.418V351.5H319c-4.142 0-7.5 3.357-7.5 7.5s3.358 7.5 7.5 7.5h18.209v27.73c0 .107.002.215.007.323.066 1.533-.04 6.873-4.173 11.197-3.547 3.711-7.93 4.479-9.856 4.631H188.55c-7.586 0-13.759-7.245-13.759-16.151V366.5H285c4.142 0 7.5-3.357 7.5-7.5s-3.358-7.5-7.5-7.5H174.791V216.592c0-4.143-3.358-7.5-7.5-7.5s-7.5 3.357-7.5 7.5V394.23c0 17.177 12.901 31.151 28.759 31.151h134.9c.158 0 .315-.005.472-.015 3.559-.225 12.627-1.575 19.963-9.251 8.079-8.451 8.436-18.78 8.323-22.029V121.838c.114-3.249-.244-13.578-8.322-22.029zm-169.095 50.733v-28.848c-1.247-6.75 6.465-16.393 14.023-16.15h134.371c7.6-.228 15.26 9.414 14.023 16.15v28.848z" />
    <path
        d="M271.957 120.509h-32.784c-4.142 0-7.5 3.357-7.5 7.5s3.358 7.5 7.5 7.5h32.784c4.142 0 7.5-3.357 7.5-7.5s-3.358-7.5-7.5-7.5z" />
    <path
        d="M256 465.27c-115.392 0-209.27-93.878-209.27-209.27S140.608 46.73 256 46.73 465.27 140.608 465.27 256c0 41.698-12.562 82.501-35.701 116.885-2.957-9.516-11.844-16.445-22.319-16.445-12.884 0-23.365 10.481-23.365 23.365v8.462c0 4.143 3.358 7.5 7.5 7.5s7.5-3.357 7.5-7.5v-8.462c0-4.612 3.752-8.365 8.365-8.365s8.365 3.753 8.365 8.365v14.24a7.502 7.502 0 0013.281 4.779C462.024 358.741 480.27 308.02 480.27 256c0-123.663-100.607-224.27-224.27-224.27S31.73 132.337 31.73 256 132.337 480.27 256 480.27c4.613 0 8.365 3.753 8.365 8.365S260.613 497 256 497c-64.374 0-124.894-25.068-170.413-70.588a245.978 245.978 0 01-4.997-5.144 7.506 7.506 0 00-10.603-.306 7.5 7.5 0 00-.305 10.603 260.689 260.689 0 005.299 5.454C123.333 485.371 187.62 512 256 512c12.884 0 23.365-10.481 23.365-23.365S268.884 465.27 256 465.27z" />
    <path
        d="M461.086 409.222C494.02 365.141 512 311.318 512 256c0-68.38-26.629-132.667-74.981-181.02C388.667 26.629 324.38 0 256 0S123.333 26.629 74.981 74.98C26.629 123.333 0 187.62 0 256c0 52.739 15.809 103.267 45.716 146.119a7.5 7.5 0 1012.301-8.584C29.875 353.212 15 305.653 15 256c0-64.374 25.068-124.894 70.587-170.412C131.106 40.068 191.626 15 256 15s124.894 25.068 170.413 70.588C471.932 131.106 497 191.626 497 256c0 57.042-20.305 112.391-57.175 155.851a7.5 7.5 0 005.72 12.352h14.589c4.613 0 8.366 3.753 8.366 8.365s-3.753 8.365-8.366 8.365h-49.541c-4.549.928-12.536-3.931-11.708-10.833v-4.814c0-4.143-3.358-7.5-7.5-7.5s-7.5 3.357-7.5 7.5v4.745c-1.252 14.402 14.178 27.452 26.887 25.902h49.362c12.884 0 23.366-10.481 23.366-23.365-.001-12.565-9.97-22.845-22.414-23.346z" />
</svg>