<svg xmlns="http://www.w3.org/2000/svg" class="iconsvg iconsvg-os" fill="black" width="128" height="128"
    viewBox="0 0 64 64">
    <path
        d="M45 23c2.206 0 4-1.794 4-4s-1.794-4-4-4-4 1.794-4 4 1.794 4 4 4zm0-6c1.103 0 2 .897 2 2s-.897 2-2 2-2-.897-2-2 .897-2 2-2zM23 33c-1.103 0-2-.897-2-2h-2c0 2.206 1.794 4 4 4s4-1.794 4-4-1.794-4-4-4c-1.103 0-2-.897-2-2s.897-2 2-2 2 .897 2 2h2c0-2.206-1.794-4-4-4s-4 1.794-4 4 1.794 4 4 4c1.103 0 2 .897 2 2s-.897 2-2 2zM13 35c2.206 0 4-1.794 4-4v-6c0-2.206-1.794-4-4-4s-4 1.794-4 4v6c0 2.206 1.794 4 4 4zm-2-10c0-1.103.897-2 2-2s2 .897 2 2v6c0 1.103-.897 2-2 2s-2-.897-2-2z" />
    <path
        d="M63 19c0-9.925-8.075-18-18-18-7.819 0-14.471 5.021-16.95 12H6c-2.757 0-5 2.243-5 5v28c0 2.757 2.243 5 5 5h16v2h-5.764a2.985 2.985 0 00-2.683 1.658L12 57.764V63h32v-5.236l-1.553-3.105A2.983 2.983 0 0039.764 53H34v-2h16c2.757 0 5-2.243 5-5V33.956c4.82-3.233 8-8.729 8-14.956zm-9.496 13.529l-5.057-6.321a8.004 8.004 0 001.45-.896l5.67 5.67a16.087 16.087 0 01-2.063 1.547zM37.792 15.553l-6.32-5.057c.461-.73.978-1.419 1.547-2.064l5.67 5.67a7.995 7.995 0 00-.897 1.451zm2.31-2.865l-5.67-5.67a16.167 16.167 0 012.064-1.547l5.057 6.321a8.047 8.047 0 00-1.451.896zM45 13c3.309 0 6 2.691 6 6s-2.691 6-6 6-6-2.691-6-6 2.691-6 6-6zm6.312 10.898c.349-.448.648-.934.897-1.451l6.32 5.057c-.461.73-.977 1.419-1.547 2.063zM61 19c0 2.402-.547 4.673-1.5 6.72l-6.633-5.307c.083-.46.133-.93.133-1.413 0-4.411-3.589-8-8-8-.483 0-.953.05-1.413.133L38.28 4.499A15.886 15.886 0 0145 3c8.822 0 16 7.178 16 16zm-30.5-6.72l6.633 5.307c-.083.46-.133.93-.133 1.413 0 4.411 3.589 8 8 8 .483 0 .953-.05 1.413-.133L51.72 33.5A15.871 15.871 0 0145 35c-8.822 0-16-7.178-16-16 0-2.402.547-4.673 1.5-6.72zM29 27.208V37H7V19h20c0 2.958.73 5.744 2 8.208zM16.236 55H22v2h-7.382l.724-1.447a.994.994 0 01.894-.553zM14 61v-2h28v2zm25.764-6c.381 0 .724.212.894.553L41.382 57H34v-2zM32 57h-8v-6h8zm18-8H6c-1.654 0-3-1.346-3-3v-3h15v1c0 1.654 1.346 3 3 3h14c1.654 0 3-1.346 3-3v-1h15v3c0 1.654-1.346 3-3 3zm-14-6v1c0 .552-.449 1-1 1h-3v-2zm-6 2h-4v-2h4zm-6 0h-3c-.551 0-1-.448-1-1v-1h4zm29-4H3V18c0-1.654 1.346-3 3-3h21.464c-.149.655-.27 1.32-.346 2H7c-1.103 0-2 .897-2 2v18c0 1.103.897 2 2 2h22c1.103 0 2-.897 2-2v-6.711C34.302 34.376 39.348 37 45 37c2.876 0 5.586-.695 8-1.899z" />
    <path
        d="M57 19h2c0-.721-.055-1.444-.165-2.152l-1.977.305c.095.607.142 1.229.142 1.847zM56.421 15.308l1.903-.615A13.96 13.96 0 0045 5v2c5.227 0 9.816 3.339 11.421 8.308z" />
</svg>