<svg xmlns="http://www.w3.org/2000/svg" class="iconsvg iconsvg-project" fill="black" width="128" height="128"
    viewBox="-68 0 512 512">
    <path
        d="M187.5 0C84.113 0 0 84.113 0 187.5c0 39.953 12.41 78.102 35.883 110.313L77.5 354.94V384.5c0 10.078 4.004 19.238 10.496 25.98-6.3 3.993-10.496 11.024-10.496 19.02a22.407 22.407 0 005.742 15 22.407 22.407 0 00-5.742 15c0 12.406 10.094 22.5 22.5 22.5h5.363l12.934 25.855a7.5 7.5 0 006.707 4.145h125a7.5 7.5 0 006.707-4.145L269.637 482H275c12.406 0 22.5-10.094 22.5-22.5a22.407 22.407 0 00-5.742-15 22.407 22.407 0 005.742-15c0-7.996-4.195-15.027-10.496-19.02 6.492-6.742 10.496-15.902 10.496-25.98v-29.559l41.613-57.128C362.59 265.601 375 227.452 375 187.5 375 84.113 290.887 0 187.5 0zm57.867 497H129.641l-7.504-15h130.73zM130 452h145c4.137 0 7.5 3.363 7.5 7.5s-3.363 7.5-7.5 7.5H100c-4.137 0-7.5-3.363-7.5-7.5s3.363-7.5 7.5-7.5c4.14 0 7.5-3.355 7.5-7.5s-3.36-7.5-7.5-7.5c-4.137 0-7.5-3.363-7.5-7.5s3.363-7.5 7.5-7.5h175c4.137 0 7.5 3.363 7.5 7.5s-3.363 7.5-7.5 7.5H130c-4.14 0-7.5 3.355-7.5 7.5s3.36 7.5 7.5 7.5zm196.992-163.02l-43.055 59.106a7.499 7.499 0 00-1.437 4.414v32c0 12.406-10.094 22.5-22.5 22.5H115c-12.406 0-22.5-10.094-22.5-22.5v-32a7.499 7.499 0 00-1.438-4.414L48.008 288.98C26.414 259.352 15 224.258 15 187.5 15 92.383 92.383 15 187.5 15S360 92.383 360 187.5c0 36.758-11.414 71.852-33.008 101.48zm0 0" />
    <path
        d="M232.5 202.5c-16.543 0-30 13.457-30 30v15h-30v-15c0-16.543-13.457-30-30-30s-30 13.457-30 30 13.457 30 30 30h15v122a7.5 7.5 0 1015 0v-52.508c0-8.273 6.73-15 15-15s15 6.727 15 15V384.5a7.5 7.5 0 1015 0v-122h15c16.543 0 30-13.457 30-30s-13.457-30-30-30zm-90 45c-8.27 0-15-6.73-15-15s6.73-15 15-15 15 6.73 15 15v15zm45 54.492a29.791 29.791 0 00-15 4.035V262.5h30v43.527a29.791 29.791 0 00-15-4.035zm45-54.492h-15v-15c0-8.27 6.73-15 15-15s15 6.73 15 15-6.73 15-15 15zm0 0" />
</svg>