<svg xmlns="http://www.w3.org/2000/svg" class="iconsvg iconsvg-ram" fill="black" width="128" height="128"
    viewBox="0 -141 512 512">
    <path
        d="M494.137 101.738c.23-.226.625-.5 1.191-.5 9.195 0 16.672-7.472 16.672-16.66V27.5C512 12.336 499.664 0 484.5 0h-46.8a7.5 7.5 0 100 15h46.8c6.895 0 12.5 5.605 12.5 12.5v57.078c0 .918-.75 1.66-1.672 1.66-4.433 0-8.613 1.73-11.797 4.895a16.59 16.59 0 00-4.86 11.777v43.79c0 9.19 7.474 16.671 16.657 16.671.613 0 1.008.3 1.188.48.222.223.484.606.484 1.18v11.328c0 1.38-1.121 2.5-2.5 2.5H281.379v-8.238c0-6.793-2.645-13.168-7.438-17.945-4.793-4.793-11.168-7.438-17.941-7.438-13.996 0-25.379 11.387-25.379 25.383v8.238H183.7a7.5 7.5 0 00-7.5 7.5c0 4.145 3.356 7.5 7.5 7.5h46.922v18.743c0 1.375-1.125 2.5-2.5 2.5H60.47c.117-.82.199-1.653.199-2.504v-18.739h87.633c4.144 0 7.5-3.355 7.5-7.5a7.5 7.5 0 00-7.5-7.5H17.5a2.502 2.502 0 01-2.5-2.5v-11.328c0-.918.75-1.66 1.672-1.66 4.453 0 8.637-1.734 11.797-4.894a16.59 16.59 0 004.86-11.778V102.91c0-9.191-7.474-16.672-16.657-16.672-.61 0-1.016-.312-1.188-.48A1.628 1.628 0 0115 84.582V27.5C15 20.61 20.605 15 27.5 15h374.8c4.145 0 7.5-3.355 7.5-7.5a7.5 7.5 0 00-7.5-7.5H27.5C12.336 0 0 12.336 0 27.5v57.082c0 4.453 1.73 8.637 4.89 11.797a16.6 16.6 0 0011.782 4.86c.914 0 1.656.75 1.656 1.671v43.79c0 .609-.312 1.015-.48 1.187a1.636 1.636 0 01-1.176.484C7.477 148.371 0 155.844 0 165.031v11.328c0 8.567 6.191 15.703 14.332 17.2v19.039c0 9.648 7.852 17.5 17.5 17.5l196.29.004c9.648 0 17.5-7.852 17.5-17.5v-41.98c0-5.727 4.655-10.384 10.378-10.384 2.77 0 5.375 1.082 7.344 3.055a10.258 10.258 0 013.035 7.328v41.98c0 9.649 7.851 17.5 17.5 17.5l196.289-.003c9.648 0 17.5-7.852 17.5-17.5v-19.04c8.14-1.495 14.332-8.632 14.332-17.199v-11.328c0-4.453-1.73-8.64-4.875-11.785-3.145-3.144-7.336-4.875-11.793-4.875-.918 0-1.66-.75-1.66-1.672V102.91c0-.578.27-.972.465-1.172zM29.332 193.86h16.336v18.739c0 1.379-1.121 2.5-2.5 2.5H31.832a2.502 2.502 0 01-2.5-2.5zm252.047 18.743v-18.743h169.953v18.739c0 .851.082 1.683.2 2.504H283.878a2.505 2.505 0 01-2.5-2.5zm198.789 2.496h-11.336a2.502 2.502 0 01-2.5-2.5v-18.739h16.336v18.739c0 1.379-1.121 2.5-2.5 2.5zm0 0" />
    <path
        d="M330.445 103.246c-4.14 0-7.5 3.36-7.5 7.5v28.996c0 9.649 7.852 17.5 17.5 17.5h25c9.649 0 17.5-7.851 17.5-17.5V54.117c0-9.648-7.851-17.5-17.5-17.5h-25c-9.648 0-17.5 7.852-17.5 17.5v21.235c0 4.14 3.36 7.5 7.5 7.5 4.14 0 7.5-3.36 7.5-7.5V54.117c0-1.379 1.121-2.5 2.5-2.5h25c1.38 0 2.5 1.121 2.5 2.5v85.625c0 1.38-1.12 2.5-2.5 2.5h-25a2.502 2.502 0 01-2.5-2.5v-28.996c0-4.14-3.36-7.5-7.5-7.5zm0 0M398.293 54.117v85.625c0 9.649 7.852 17.5 17.5 17.5h25c9.648 0 17.5-7.851 17.5-17.5V54.117c0-9.648-7.852-17.5-17.5-17.5h-25c-9.648 0-17.5 7.852-17.5 17.5zm15 0c0-1.379 1.121-2.5 2.5-2.5h25c1.379 0 2.5 1.121 2.5 2.5v85.625c0 1.38-1.121 2.5-2.5 2.5h-25a2.502 2.502 0 01-2.5-2.5zm0 0M71.203 36.617c-9.648 0-17.5 7.852-17.5 17.5v85.625c0 9.649 7.852 17.5 17.5 17.5h25c9.649 0 17.5-7.851 17.5-17.5V54.117c0-9.648-7.851-17.5-17.5-17.5zm27.5 17.5v85.625c0 1.38-1.121 2.5-2.5 2.5h-25a2.502 2.502 0 01-2.5-2.5V54.117c0-1.379 1.121-2.5 2.5-2.5h25c1.379 0 2.5 1.121 2.5 2.5zm0 0M146.55 36.617c-9.648 0-17.5 7.852-17.5 17.5v85.625c0 9.649 7.852 17.5 17.5 17.5h25c9.65 0 17.5-7.851 17.5-17.5V54.117c0-9.648-7.85-17.5-17.5-17.5zm27.5 17.5v85.625c0 1.38-1.12 2.5-2.5 2.5h-25a2.505 2.505 0 01-2.5-2.5V54.117c0-1.379 1.126-2.5 2.5-2.5h25c1.38 0 2.5 1.121 2.5 2.5zm0 0M224 75.68h-10.5c-4.14 0-7.5 3.36-7.5 7.5 0 4.14 3.36 7.5 7.5 7.5H224c4.14 0 7.5-3.36 7.5-7.5 0-4.14-3.36-7.5-7.5-7.5zm0 0M261.25 75.68h-10.5c-4.14 0-7.5 3.36-7.5 7.5 0 4.14 3.36 7.5 7.5 7.5h10.5c4.14 0 7.5-3.36 7.5-7.5 0-4.14-3.36-7.5-7.5-7.5zm0 0M298.5 75.68H288c-4.14 0-7.5 3.36-7.5 7.5 0 4.14 3.36 7.5 7.5 7.5h10.5c4.14 0 7.5-3.36 7.5-7.5 0-4.14-3.36-7.5-7.5-7.5zm0 0M224 103.18h-10.5c-4.14 0-7.5 3.36-7.5 7.5 0 4.14 3.36 7.5 7.5 7.5H224c4.14 0 7.5-3.36 7.5-7.5 0-4.14-3.36-7.5-7.5-7.5zm0 0M261.25 103.18h-10.5c-4.14 0-7.5 3.36-7.5 7.5 0 4.14 3.36 7.5 7.5 7.5h10.5c4.14 0 7.5-3.36 7.5-7.5 0-4.14-3.36-7.5-7.5-7.5zm0 0M298.5 103.18H288c-4.14 0-7.5 3.36-7.5 7.5 0 4.14 3.36 7.5 7.5 7.5h10.5c4.14 0 7.5-3.36 7.5-7.5 0-4.14-3.36-7.5-7.5-7.5zm0 0M290.75 44.121a7.5 7.5 0 00-7.5-7.5h-54.5a7.5 7.5 0 100 15h54.5c4.14 0 7.5-3.36 7.5-7.5zm0 0" />
</svg>