<svg xmlns="http://www.w3.org/2000/svg" class="iconsvg iconsvg-reddit" fill="black" width="128" height="128"
	viewBox="0 0 512 512">
	<path
		d="M437.019 74.981C388.667 26.628 324.379 0 256 0S123.333 26.628 74.981 74.981C26.628 123.333 0 187.621 0 256s26.628 132.667 74.981 181.019C123.333 485.372 187.621 512 256 512s132.667-26.628 181.019-74.981S512 324.379 512 256s-26.628-132.667-74.981-181.019zM256 495.832C123.756 495.832 16.168 388.244 16.168 256S123.756 16.168 256 16.168 495.832 123.756 495.832 256 388.244 495.832 256 495.832z" />
	<path
		d="M351.439 368.197a8.085 8.085 0 00-11.386-1.036c-21.997 18.331-51.848 28.426-84.053 28.426s-62.057-10.096-84.053-28.426a8.084 8.084 0 10-10.351 12.421c24.897 20.748 58.423 32.174 94.404 32.174s69.507-11.426 94.404-32.173a8.084 8.084 0 001.035-11.386z" />
	<path
		d="M468.884 234.442c0-34.176-27.803-61.979-61.979-61.979-16.932 0-33.183 7.059-44.801 19.173-27.526-17.51-61.328-28.388-98.021-29.79v-50.925l17.626-5.876c5.038 18.272 22.602 31.404 42.84 29.508 19.499-1.826 35.068-17.794 36.443-37.331 1.66-23.596-17.068-43.328-40.319-43.328-20.258 0-37.08 14.981-39.977 34.446l-27.253 9.085a8.084 8.084 0 00-5.527 7.669v56.751c-36.694 1.4-70.495 12.279-98.023 29.791-11.616-12.115-27.86-19.174-44.798-19.174-34.176 0-61.979 27.803-61.979 61.979 0 25.056 15.304 47.605 37.992 57.155a125.654 125.654 0 00-1.343 18.297c0 81.724 79.059 148.211 176.236 148.211 49.571 0 94.424-17.305 126.476-45.103 3.495-3.03 3.675-8.396.404-11.666l-.101-.101a7.961 7.961 0 00-10.846-.391c-29.18 25.299-70.361 41.094-115.933 41.094-88.261 0-160.067-59.234-160.067-132.042S167.739 177.853 256 177.853s160.067 59.234 160.067 132.042c0 22.907-7.109 44.47-19.602 63.268-2.085 3.137-1.617 7.319 1.047 9.982l.115.115c3.58 3.58 9.516 2.942 12.317-1.274 14.194-21.352 22.291-45.941 22.291-72.092 0-6.195-.461-12.3-1.343-18.297 22.688-9.549 37.992-32.098 37.992-57.155zM320.674 70.063c13.373 0 24.253 10.879 24.253 24.253s-10.879 24.253-24.253 24.253c-13.373 0-24.253-10.879-24.253-24.253s10.879-24.253 24.253-24.253zM84.592 275.408c-15.229-7.656-25.308-23.483-25.308-40.965 0-25.26 20.55-45.811 45.81-45.811 11.895 0 22.975 4.455 31.404 12.436-25.233 19.61-43.654 45.33-51.906 74.34zm342.816 0c-8.252-29.008-26.671-54.728-51.905-74.339 8.43-7.981 19.513-12.437 31.402-12.437 25.26 0 45.81 20.55 45.81 45.811.001 17.481-10.079 33.308-25.307 40.965z" />
	<path
		d="M180.547 237.137c-22.289 0-40.421 18.132-40.421 40.421 0 22.289 18.132 40.421 40.421 40.421s40.421-18.132 40.421-40.421-18.132-40.421-40.421-40.421zm0 64.674c-13.373 0-24.253-10.879-24.253-24.253 0-13.373 10.879-24.253 24.253-24.253 13.373 0 24.253 10.879 24.253 24.253 0 13.373-10.879 24.253-24.253 24.253zM331.453 237.137c-22.289 0-40.421 18.132-40.421 40.421 0 22.289 18.132 40.421 40.421 40.421s40.421-18.132 40.421-40.421c0-22.289-18.133-40.421-40.421-40.421zm0 64.674c-13.373 0-24.253-10.879-24.253-24.253 0-13.373 10.879-24.253 24.253-24.253s24.253 10.879 24.253 24.253c-.001 13.373-10.88 24.253-24.253 24.253z" />
</svg>