<svg xmlns="http://www.w3.org/2000/svg" class="iconsvg iconsvg-firefox" fill="black" width="128" height="128"
    viewBox="0 0 512 512">
    <path
        d="M380.344 103.99a7.5 7.5 0 00-7.5 7.5v319.905c0 1.378-1.121 2.5-2.5 2.5H166.763a7.5 7.5 0 000 15h203.581c9.649 0 17.5-7.851 17.5-17.5V111.49a7.5 7.5 0 00-7.5-7.5zM370.344 0H73.012c-9.649 0-17.5 7.851-17.5 17.5v413.895c0 9.649 7.851 17.5 17.5 17.5h60.76a7.5 7.5 0 000-15h-60.76a2.503 2.503 0 01-2.5-2.5V17.5c0-1.378 1.122-2.5 2.5-2.5h297.332c1.379 0 2.5 1.122 2.5 2.5v60.999c0 4.142 3.357 7.5 7.5 7.5s7.5-3.358 7.5-7.5V17.5c0-9.649-7.851-17.5-17.5-17.5zM444.053 405.547l-1.765 1.542V48.008l1.765 1.542a7.501 7.501 0 009.869-11.297l-14.199-12.404a7.5 7.5 0 00-9.869 0l-14.198 12.404a7.502 7.502 0 00-.714 10.583 7.484 7.484 0 005.651 2.565 7.47 7.47 0 004.932-1.852l1.764-1.541v359.079l-1.764-1.541a7.501 7.501 0 00-9.869 11.297l14.198 12.404c1.413 1.235 3.174 1.852 4.935 1.852s3.521-.617 4.935-1.852l14.199-12.404a7.502 7.502 0 00.714-10.583 7.502 7.502 0 00-10.584-.713zM362.371 471.168a7.498 7.498 0 00-10.583-.713 7.502 7.502 0 00-.714 10.583l1.541 1.764H90.74l1.541-1.764a7.5 7.5 0 10-11.296-9.869l-12.404 14.198a7.5 7.5 0 000 9.869l12.404 14.199a7.481 7.481 0 005.651 2.566 7.5 7.5 0 005.645-12.435l-1.542-1.765h261.875l-1.541 1.764a7.501 7.501 0 0011.297 9.87l12.404-14.199a7.5 7.5 0 000-9.869z" />
    <path
        d="M205.135 31.4h-101.49c-6.893 0-12.5 5.607-12.5 12.5v21.962c0 6.893 5.607 12.5 12.5 12.5h101.49c6.893 0 12.5-5.607 12.5-12.5V43.9c0-6.892-5.607-12.5-12.5-12.5zm-2.5 31.963h-96.49V46.4h96.49zM209.476 105.992c-2.339-3.31-6.155-5.286-10.208-5.286s-7.869 1.976-10.208 5.286l-56.616 80.115c-2.707 3.83-3.048 8.796-.892 12.961s6.41 6.752 11.1 6.752h66.425v53.671c0 6.893 5.607 12.5 12.5 12.5h26.226a7.5 7.5 0 000-15h-23.726v-79.066h79.066v79.066h-22.35c-4.143 0-7.5 3.358-7.5 7.5s3.357 7.5 7.5 7.5h24.85c6.893 0 12.5-5.607 12.5-12.5v-84.066c0-6.893-5.607-12.5-12.5-12.5h-55.934zm12.102 56.935c-6.893 0-12.5 5.607-12.5 12.5v15.395h-61.597l51.788-73.284 32.075 45.389zM319.642 302.506H123.714a7.5 7.5 0 000 15h195.929a7.5 7.5 0 10-.001-15zM123.714 345.189h195.929c4.143 0 7.5-3.358 7.5-7.5s-3.357-7.5-7.5-7.5H123.714a7.5 7.5 0 000 15zM319.642 385.384h-42.673c-4.143 0-7.5 3.358-7.5 7.5s3.357 7.5 7.5 7.5h42.673c4.143 0 7.5-3.358 7.5-7.5s-3.357-7.5-7.5-7.5zM269.469 101.751a7.5 7.5 0 007.5 7.5h42.673c4.143 0 7.5-3.358 7.5-7.5s-3.357-7.5-7.5-7.5h-42.673a7.5 7.5 0 00-7.5 7.5zM319.659 75.935h.036a7.5 7.5 0 00.034-15H319.589a7.5 7.5 0 00-.034 15zM292.702 75.935h.036a7.5 7.5 0 00.034-15H292.632a7.5 7.5 0 00-.034 15z" />
</svg>