<svg xmlns="http://www.w3.org/2000/svg" class="iconsvg iconsvg-safari" fill="black" width="128" height="128"
	viewBox="0 0 512 512">
	<path
		d="M437.019 74.982C388.667 26.628 324.379 0 256 0S123.333 26.628 74.981 74.982C26.628 123.333 0 187.621 0 256s26.628 132.667 74.981 181.019C123.333 485.372 187.621 512 256 512s132.667-26.628 181.019-74.982C485.372 388.667 512 324.379 512 256s-26.628-132.667-74.981-181.018zM256 495.832C123.756 495.832 16.168 388.244 16.168 256S123.756 16.168 256 16.168 495.832 123.756 495.832 256 388.244 495.832 256 495.832z" />
	<path
		d="M256 53.895C144.559 53.895 53.895 144.559 53.895 256S144.559 458.105 256 458.105 458.105 367.441 458.105 256 367.441 53.895 256 53.895zm0 388.042c-102.526 0-185.937-83.411-185.937-185.937S153.474 70.063 256 70.063 441.937 153.474 441.937 256 358.526 441.937 256 441.937z" />
	<path
		d="M414.95 252.412c-1.871-84.45-70.339-153.173-154.781-155.347-30.144-.776-58.474 6.894-82.802 20.8-4.55 2.601-5.322 8.857-1.616 12.563l.139.139c2.559 2.56 6.504 3.038 9.648 1.246 22.226-12.662 48.157-19.537 75.734-18.538 75.259 2.726 135.883 64.28 137.515 139.571 1.761 81.265-64.737 147.741-146.011 145.939-76.434-1.693-138.412-64.121-139.58-140.565-.62-40.544 15.755-77.337 42.44-103.725a7.987 7.987 0 00.029-11.33l-.114-.114a8.01 8.01 0 00-11.295-.03c-29.795 29.472-48.037 70.6-47.218 115.904 1.535 84.922 70.465 154.146 155.38 156.025 90.497 2.002 164.536-72.039 162.532-162.538z" />
	<path
		d="M322.691 189.307a8.092 8.092 0 00-8.273-1.952l-91.463 30.487a8.09 8.09 0 00-5.114 5.112l-30.487 91.463a8.088 8.088 0 001.953 8.274 8.087 8.087 0 008.273 1.952l91.463-30.487a8.09 8.09 0 005.114-5.112l30.487-91.463a8.083 8.083 0 00-1.953-8.274zM207.807 304.193l21.238-63.713 42.475 42.476-63.713 21.237zm75.148-32.672l-42.476-42.476 63.713-21.239-21.237 63.715z" />
</svg>