<svg xmlns="http://www.w3.org/2000/svg" class="iconsvg iconsvg-screen" fill="black" width="128" height="128"
    viewBox="0 0 512.005 512.005">
    <path
        d="M504.502 299.502c4.143 0 7.5-3.357 7.5-7.5V75.755c0-3.519-1.495-6.893-4.102-9.255a12.576 12.576 0 00-9.171-3.212H13.276A12.54 12.54 0 004.104 66.5a12.515 12.515 0 00-4.102 9.255v292.971c-.144 7.009 6.287 13.044 13.273 12.467h209.727v16.094l-98.364 10.539a17.468 17.468 0 00-15.636 17.4v6.014c0 9.649 7.851 17.5 17.5 17.5h185.5c4.143 0 7.5-3.357 7.5-7.5s-3.357-7.5-7.5-7.5h-185.5a2.502 2.502 0 01-2.5-2.5v-6.014c0-1.281.96-2.35 2.233-2.486l105.497-11.304a233.057 233.057 0 0149.539 0L386.77 422.74a2.496 2.496 0 012.232 2.486v6.014c0 1.379-1.121 2.5-2.5 2.5h-39.5c-4.143 0-7.5 3.357-7.5 7.5s3.357 7.5 7.5 7.5h39.5c9.649 0 17.5-7.851 17.5-17.5v-6.014a17.467 17.467 0 00-15.636-17.4l-98.364-10.539v-16.094h208.727c6.965.586 13.427-5.463 13.273-12.467v-41.724c0-4.143-3.357-7.5-7.5-7.5s-7.5 3.357-7.5 7.5v39.19h-482V78.288h482v213.714a7.5 7.5 0 007.5 7.5zm-229.5 96.319a248.083 248.083 0 00-37 0v-14.628h37z" />
    <path
        d="M37.502 174.502a7.499 7.499 0 00-7.5 7.5v159.279c0 4.143 3.357 7.5 7.5 7.5h437c4.143 0 7.5-3.357 7.5-7.5V103.2c0-4.143-3.357-7.5-7.5-7.5h-437a7.499 7.499 0 00-7.5 7.5v43.802c0 4.143 3.357 7.5 7.5 7.5s7.5-3.357 7.5-7.5V110.7h422v223.081h-422V182.002c0-4.143-3.357-7.5-7.5-7.5z" />
</svg>