<svg xmlns="http://www.w3.org/2000/svg" class="iconsvg iconsvg-telco" fill="black" width="128" height="128"
    viewBox="0 0 512 512">
    <path
        d="M494.5 162.806V63.868c0-4.142-3.357-7.5-7.5-7.5s-7.5 3.358-7.5 7.5V187.5a.5.5 0 01-.5.5h-94a.5.5 0 01-.5-.5v-172a.5.5 0 01.5-.5h94a.5.5 0 01.5.5v16.182c0 4.142 3.357 7.5 7.5 7.5s7.5-3.358 7.5-7.5V15.5C494.5 6.953 487.547 0 479 0h-94c-8.547 0-15.5 6.953-15.5 15.5v10.983C334.404 9.125 295.427 0 256 0 114.518 0 0 114.5 0 256c0 40.638 9.233 79.462 27.446 115.426v76.162c0 4.142 3.357 7.5 7.5 7.5s7.5-3.358 7.5-7.5V324.5a.5.5 0 01.5-.5h94a.5.5 0 01.5.5v172a.5.5 0 01-.5.5h-94a.5.5 0 01-.5-.5v-16.54c0-4.142-3.357-7.5-7.5-7.5s-7.5 3.358-7.5 7.5v16.54c0 8.547 6.953 15.5 15.5 15.5h94c8.547 0 15.5-6.953 15.5-15.5v-6.31C185.053 504.669 219.83 512 256 512c92.095 0 173.711-48.826 218.933-123.25a7.5 7.5 0 10-12.819-7.789c-25.884 42.597-63.076 75.131-106.53 94.76 2.864-8.812 3.622-13.027 4.345-15.327 14.254-8.331 10.876.078 18.55-37.184.225-1.062.225-1.062.3-6.473l.063-4.395c18.263-13.508 12.47-3.777 24.053-35.544 1.46-3.896 1.21-2.849-5.474-31.676-1.581-6.82-4.556-7.007-26.777-17.179l-.093-.042c-5.048-2.328-6.175-1.234-26.595 6.277-1.805-2.161-4.972-6.34-9.078-11.466l-.068-.086c-3.27-4.134-3.562-3.48-31.44-8.204-1.805-.308-.985-.113-25.327.123-10.831-4.358-10.538-4.339-24.37 7.334-5.869 4.958-4.009 10.265-2.109 24.118-.724 1.67-2.987 6.507-5.943 12.96-1.856 4.051-1.401 5.568 2.137 17.381.896 2.995 2.048 6.838 3.489 11.735.72 2.783.388 1.988 16.256 21.04 4.74 5.693 14.386 4.626 20.1 6.013l16.669 45.698c-.274 4.839-2.837 12.809-.503 17.794l5.834 12.47C292.267 494.981 274.316 497 256 497c-36.313 0-71.126-7.844-103.554-23.323V324.5c0-8.547-6.953-15.5-15.5-15.5h-94c-8.547 0-15.5 6.953-15.5 15.5v8.264C19.175 308.219 15 282.521 15 256c0-47.136 13.603-91.155 37.088-128.338 4.701 2.483 12.16 6.446 21.359 11.349.831 2.733 3.044 11.441 6.092 22.836 1.13 4.227 8.126 12.9 10.364 17.643-3.28 23.112-2.807 12.365-2.39 37.861.171 13.259-1.245 8.637 9.795 31.009 5.924 9.934-5.035 2.127 44.333 28.755 2.672 3.22 11.729 14.334 24.175 29.666 3.635 4.479 6.575 4.408 18.979 4.12 2.812-.066 6.304-.148 10.66-.224 23.409 6.136 22.987 6.458 25.632 6.458a11.494 11.494 0 0011.347-9.606c2.706-16.263 4.689-18.158-7.889-28.132-2.805-2.224-6.603-5.235-11.681-9.72-.857-1.559-3.13-6.142-7.579-15.899.394-.305.834-.604 1.214-.826l23.292-3.609c8.748-1.357 9.739-9.46 11.729-17.451 9.039-8.421 11.337-7.807 11.887-19.485.045-.955.106-2.281.224-3.134l19.583-15.889c2.536-2.058 4.009-4.906 4.145-8.02.286-6.503-5.118-11.736-10.344-16.796-1.537-1.488-3.969-3.843-4.966-5.185.096-1.05.185-1.915.266-2.613a675.286 675.286 0 0123.527-13.218c9.446-5.092 13.848-7.465 13.607-14.652.042-1.218-.056-2.68-.185-4.595-.308-4.587-.892-6.996-2.153-8.887l-16.001-23.97c-2.51-3.757-4.755-4.327-13.108-6.447-11.791-2.994-12.569-4.414-22.363 5.333a489.714 489.714 0 01-3.935 3.884c-1.676 1.451-1.779 1.692-7.96 16.148-1.662 3.888-3.817 8.93-6.642 15.517-2.633.207-7.391.361-13.994.704-2.007-2.215-8.043-9.627-15.568-18.591-.425-1.588-1.471-6.039-3.197-13.141 1.802-2.321 5.928-7.135 11.959-14.171a6430.422 6430.422 0 0017.98-21.05c6.081-7.154 1.474-12.698-6.532-28.591-5.223-10.365-15.308-5.444-25.307-1.561-16.47 6.396-10.4 2.184-26.963 20.08-.041-.008-22.284-5.125-29.243-6.643C171.539 26.618 212.438 15 256 15c8.116 0 16.211.411 24.253 1.223l-3.887 6.641c-1.612 2.758-1.979 5.894-1.031 8.832 2.848 8.835 16.65 12.094 21.679 15.266l10.305 17.041c2.301 3.815 6.6 6.566 8.997 9.124l-2.692 15.883c-.509 2.545-.509 2.545 3.541 16.413 1.108 3.796 2.565 8.783 4.475 15.361 2.55 8.772 10.821 8.609 19.94 8.609 9.492-.001 10.229-6.914 24.836-40.513.706-.384 1.75-.92 3.086-1.594V187.5c0 8.547 6.953 15.5 15.5 15.5h94c4.331 0 8.252-1.785 11.067-4.658C494.675 217.093 497 236.384 497 256c0 34.129-6.987 67.108-20.768 98.02a7.5 7.5 0 0013.701 6.108C504.575 327.281 512 292.248 512 256c0-32.161-5.887-63.507-17.5-93.194zM363.762 420.312c.015-.083.031-.153.047-.229-.006.029-.025.112-.047.229zm-45.982 52.861c.221-4.839 2.588-11.995.867-16.708l-17.563-48.146c-3.527-9.669-16.99-8.193-22.752-9.641-6.816-8.182-11.631-13.909-12.885-15.476-2.787-9.457-5.024-16.728-5.658-19.164 9.433-20.566 7.146-12.459 4.974-31.903 1.818-1.554 4.179-3.634 5.376-4.625 3.166 1.301 4.7 2.07 7.396 2.04l23.629-.29c12.71 2.152 19.964 3.286 22.831 3.86 18.474 23.182 13.387 18.578 41.694 9.05 8.941 4.083 14.882 6.675 17.499 7.976 3.23 13.898 4.733 20.098 5.229 22.563-1.692 4.649-3.01 8.3-4.047 11.175-1.456 4.035-2.525 6.999-3.102 8.452-2.409 1.691-4.407 3.075-6.063 4.223-8.415 5.83-11.25 7.793-11.339 13.833-.181 12.893.406 7.202-2.927 23.854-.886 4.431-1.586 7.933-2.041 9.797-15.786 8.193-10.649 6.425-18.205 28.932l-5.169 10.731a239.361 239.361 0 01-11.151 3.562zM154.009 66.343c20.43 4.803 16.071 3.834 33.957-15.079 8.327-3.133 14.23-5.546 17.761-6.763 2.215 4.347 4.613 8.892 5.674 11.125-19.451 22.859-26.464 30.74-29.456 34.764-4.601 6.185-2.571 9.289-2.599 10.272 4.355 17.874 4.028 17.796 6.188 20.359 23.605 28.099 18.11 24.987 35.711 24.193 21.173-.955 15.008-.708 31.334-36.65 2.013-1.968 5.283-5.253 6.466-6.371 5.398 1.393 8.545 2.157 10.312 2.662l14.708 22.035c.151 1 .274 2.779.337 4.331-1.358.8-3.477 1.941-5.677 3.127-5.545 2.989-13.925 7.507-26.887 15.187-3.889 2.293-4.209 6.173-4.849 13.902-.507 6.129 4.398 10.879 9.592 15.907 1.307 1.265 3.185 3.084 4.496 4.571l-17.899 14.523c-5.451 4.422-4.402 12.031-4.965 16.286-12.466 11.161-9.506 7.667-12.849 20.125l-22.128 3.43c-3.165.491-9.462 4.347-12.124 9.27-1.796 3.321-1.974 6.94-.5 10.194 8.774 19.355 10.207 21.753 12.154 23.027 9.33 8.253 14.602 11.843 16.73 13.913-.14 1.273-.639 3.664-1.187 6.585l-19.45-5.208a11.515 11.515 0 00-3.17-.389c-4.624.079-8.304.165-11.245.234-3.433.081-6.338.15-8.035.125-24.78-30.53-24.802-30.542-26.28-31.378a5.253 5.253 0 00-.128-.071c-25.559-13.799-34.563-18.257-37.912-20.167-2.982-6.041-8.421-17.02-9.446-19.308-.23-14.062-.41-24.857-.415-26.351l2.711-18.407c.677-4.597-2.16-9.149-7.659-17.463-1.211-1.832-2.844-4.3-3.348-5.284-1.437-5.371-2.545-9.6-3.421-12.94-3.741-14.264-4.132-15.755-8.677-18.178-10.155-5.414-16.832-8.974-21.295-11.32a243.019 243.019 0 0157.617-56.752c17.801 3.686 29.012 6.323 35.853 7.932zm214.754 4.548c-13.099 6.51-13.883 6.9-15.6 10.846-7.857 18.055-11.947 27.981-14.095 32.473-1.383-.043-2.641-.012-3.723-.009-3.857-13.275-6.18-21.11-6.803-23.463l2.834-16.715c1.568-9.33-9.296-15.025-11.219-17.774L309.41 38.477c-3.237-5.33-11.684-7.258-18.357-11.011l5.308-9.067c25.547 4.329 50.299 12.742 73.14 24.95v27.176z" />
    <path
        d="M421.5 23.356c-4.143 0-7.5 3.358-7.5 7.5s3.357 7.5 7.5 7.5h20c4.143 0 7.5-3.358 7.5-7.5s-3.357-7.5-7.5-7.5zM99.446 347.356c4.143 0 7.5-3.358 7.5-7.5s-3.357-7.5-7.5-7.5h-20c-4.143 0-7.5 3.358-7.5 7.5s3.357 7.5 7.5 7.5z" />
</svg>