<svg xmlns="http://www.w3.org/2000/svg" class="iconsvg iconsvg-twitter" fill="black" width="128" height="128"
	viewBox="0 0 512 512">
	<path
		d="M437.019 74.981C388.667 26.628 324.379 0 256 0S123.333 26.628 74.981 74.981C26.628 123.333 0 187.621 0 256s26.628 132.667 74.981 181.019C123.333 485.372 187.621 512 256 512s132.667-26.628 181.019-74.981S512 324.379 512 256s-26.628-132.667-74.981-181.019zM256 495.832C123.756 495.832 16.168 388.244 16.168 256S123.756 16.168 256 16.168 495.832 123.756 495.832 256 388.244 495.832 256 495.832z" />
	<path
		d="M436.352 162.391c-2.433-2.104-5.958-2.463-8.875-1.11a125.666 125.666 0 01-12.806 5.107 73.664 73.664 0 0010.188-19.432c1.002-2.891.503-6.176-1.569-8.427a8.088 8.088 0 00-9.963-1.56 116.38 116.38 0 01-37.931 13.618c-14.958-13.729-34.201-21.24-54.643-21.24-42.313 0-77.147 32.642-80.648 74.065-8.741-1.364-25.844-6.241-29.933-7.578-29.581-10.075-56.228-27.814-77.075-51.307-1.236-1.393-2.864-2.429-4.695-2.764a8.099 8.099 0 00-8.745 4.339c-5.181 10.383-7.809 21.548-7.809 33.185 0 16.093 5.038 31.261 14.113 43.73-2.828-.531-5.838.462-7.812 2.89-1.135 1.396-1.703 3.168-1.77 4.966a67.49 67.49 0 00-.057 2.472c0 21.817 9.99 41.646 26.136 54.588a8.125 8.125 0 00-2.703 3.082c-.963 1.904-1.07 4.143-.434 6.178 7.052 22.559 24.572 39.739 46.292 46.781-19.673 11.976-42.429 18.434-65.679 18.434-2.053 0-4.166-.053-6.279-.156a8.098 8.098 0 00-8.371 6.744c-.568 3.349 1.162 6.698 4.087 8.423 29.718 17.529 63.734 26.792 98.39 26.792 41.361 0 80.758-12.881 113.607-36.725 4.052-2.942 4.499-8.821.959-12.362l-.003-.003c-2.852-2.852-7.338-3.159-10.605-.793-29.275 21.198-65.207 33.714-103.959 33.714a177.989 177.989 0 01-63.255-11.61c24.303-4.268 47.275-14.808 66.409-30.712 2.312-1.922 3.529-4.962 2.947-7.911a8.086 8.086 0 00-7.707-6.535 55.504 55.504 0 01-46.698-28.06 77.33 77.33 0 0013.44-1.841c3.382-.77 6.119-3.472 6.559-6.913a8.086 8.086 0 00-6.085-8.897 53.623 53.623 0 01-40.14-43.256 73.794 73.794 0 0019.047 1.896 8.088 8.088 0 007.792-7.166c.374-3.196-1.323-6.291-4.07-7.966-17.529-10.682-27.985-29.272-27.985-49.783 0-5.014.623-9.917 1.859-14.665 21.193 20.954 46.914 36.922 75.086 46.518.258.088 28.093 8.754 38.636 8.797.688.017 3.975.162 3.98.162 3.388.137 6.673-1.919 7.953-5.326.368-.978.502-2.03.477-3.074-.011-.471-.023-.942-.023-1.416 0-35.713 29.055-64.768 64.769-64.768 17.487 0 33.878 6.872 46.158 19.348 1.777 1.807 4.282 2.697 6.793 2.349a133.153 133.153 0 0024.037-5.632 57.859 57.859 0 01-14.502 11.504c-3.692 2.067-5.258 6.558-3.518 10.415l.119.264a8.087 8.087 0 008.136 4.72 142.822 142.822 0 0019.753-3.291 130.55 130.55 0 01-18.849 16.051 8.044 8.044 0 00-3.416 6.865l.017.511c.019.553.04 1.107.04 1.664v.731c-.186 45.29-17.461 86.654-45.668 117.994-2.882 3.201-2.702 8.117.344 11.163 3.312 3.312 8.72 3.151 11.855-.332 31.691-35.208 49.224-80.18 49.633-127.902a145.695 145.695 0 0036.227-39.093 8.084 8.084 0 00-1.558-10.454z" />
</svg>