<svg xmlns="http://www.w3.org/2000/svg" class="iconsvg iconsvg-whatsapp" fill="black" width="128" height="128"
	viewBox="0 0 512 512">
	<path
		d="M437.019 74.981C388.667 26.628 324.379 0 256 0S123.333 26.628 74.982 74.981C26.628 123.333 0 187.621 0 256s26.628 132.667 74.982 181.019C123.333 485.372 187.621 512 256 512s132.667-26.628 181.019-74.981S512 324.379 512 256s-26.628-132.667-74.981-181.019zM256 495.832C123.756 495.832 16.168 388.244 16.168 256S123.756 16.168 256 16.168 495.832 123.756 495.832 256 388.244 495.832 256 495.832z" />
	<path
		d="M408.491 159.434c-2.735-4.304-8.783-4.922-12.388-1.315l-.116.116c-2.667 2.667-3.083 6.813-1.064 9.999 16.112 25.41 25.457 55.516 25.457 87.766 0 90.639-73.74 164.379-164.379 164.379-40.05 0-78.635-14.575-108.654-41.044-1.497-1.32-3.409-2.072-5.406-2.072H95.478l15.266-38.167a8.095 8.095 0 00-.349-6.762C98.112 308.957 91.621 282.561 91.621 256c0-90.639 73.74-164.379 164.379-164.379 44.86 0 85.573 18.069 115.261 47.303 3.128 3.081 8.155 3.054 11.261-.051l.103-.103c3.156-3.156 3.11-8.272-.071-11.402C349.949 95.283 305.25 75.453 256 75.453c-99.553 0-180.547 80.993-180.547 180.547 0 27.91 6.53 55.659 18.914 80.505l-18.336 45.84a8.1 8.1 0 002.557 9.402c1.459 1.146 3.309 1.685 5.165 1.685h55.172a180.339 180.339 0 00117.076 43.116c99.553 0 180.547-80.993 180.547-180.547-.001-35.493-10.297-68.623-28.057-96.567z" />
	<path
		d="M371.269 297.563c-.421-1.046-1.099-1.968-1.896-2.765l-45.598-45.597a8.085 8.085 0 00-11.433 0l-19.245 19.246c-24.04-9.23-40.312-25.502-49.542-49.542l19.246-19.246a8.083 8.083 0 000-11.432l-45.731-45.731a8.085 8.085 0 00-11.433 0l-46.894 46.891c-11.125 11.127-12.563 28.427-3.418 41.138a553.22 553.22 0 0064.798 74.881c3.149 3.041 8.15 3.015 11.245-.081l.114-.114c3.157-3.157 3.125-8.292-.087-11.394a537.194 537.194 0 01-62.945-72.734c-4.494-6.245-3.767-14.767 1.728-20.261l41.176-41.176 34.298 34.299-17.149 17.149c-2.154 2.154-2.928 5.346-1.965 8.236 10.959 32.91 33.198 55.157 66.1 66.125a8.092 8.092 0 008.274-1.953l17.148-17.149 34.299 34.299-41.176 41.176c-5.495 5.495-14.015 6.223-20.261 1.728a536.84 536.84 0 01-30.788-23.91c-3.168-2.648-7.841-2.418-10.761.502l-.109.109c-3.325 3.325-3.084 8.791.524 11.808a552.29 552.29 0 0031.69 24.614c5.596 4.027 12.08 6.001 18.538 6.001 8.208 0 16.372-3.193 22.6-9.421l46.892-46.892a8.117 8.117 0 001.761-8.804z" />
</svg>