<svg xmlns="http://www.w3.org/2000/svg" class="iconsvg iconsvg-windows" fill="black" width="128" height="128"
	viewBox="0 0 512 512">
	<path
		d="M206.919 43.678C-1.253 71.189 22.953 67.896 9.349 70.077A10.597 10.597 0 00.392 80.585v163.199c0 5.882 4.761 10.648 10.646 10.648h.009c65.036-.055 130.694-1.763 197.272-1.815 5.864-.005 10.635-4.777 10.635-10.638V54.23c.001-6.44-5.679-11.395-12.035-10.552zm-2.942 193.968c-63.787.118-126.402 1.681-188.607 1.803V84.281c8.842-1.418-12.877 1.521 188.607-25.106v178.471zM208.05 259.536c-57.71 1.425-198.01-.083-197.011-.083A10.642 10.642 0 00.393 270.1v163.132c0 5.302 3.962 9.836 9.216 10.547 1.054.143 196.121 26.521 198.697 26.521 5.861 0 10.648-4.753 10.648-10.642v-189.49c.001-6.072-5.027-10.783-10.904-10.632zm-4.073 195.178c-64.737-8.535-127.664-17.035-188.607-25.271V274.526c62.042.119 124.732 1.44 188.607 0v180.188zM499.452.109c-41.604 5.94-82.08 11.65-122.51 17.557a7.49 7.49 0 102.166 14.821c38.599-5.64 76.862-11.045 117.522-16.845v220.185c-84.049.093-170.088 1.716-254.044 1.809V53.455c14.9-2.216 38.659-6.396 101.599-15.81a7.49 7.49 0 00-2.215-14.813c-63.066 9.433-85.428 13.405-105.283 16.357-5.175.769-9.079 5.294-9.079 10.526V241.97c0 5.88 4.755 10.645 10.64 10.645 82.463 0 176.023-1.774 262.73-1.815 5.861-.003 10.63-4.776 10.63-10.638V10.642c0-6.466-5.74-11.448-12.156-10.533zM504.119 385.694a7.49 7.49 0 007.489-7.489V271.912c0-5.868-4.774-10.642-10.642-10.642H238.25c-5.868 0-10.642 4.774-10.642 10.642V464.15c0 5.266 3.93 9.798 9.143 10.539 86.516 12.319 175.875 23.127 262.52 37.17 6.455 1.051 12.338-3.937 12.338-10.5v-88.207a7.49 7.49 0 00-14.978 0v83.109c-84.069-13.489-170.184-23.985-254.044-35.872V276.247H496.63v101.958a7.49 7.49 0 007.489 7.489z" />
</svg>