<svg id="Capa_1" enable-background="new 0 0 512 512" height="512" viewBox="0 0 512 512" width="512" xmlns="http://www.w3.org/2000/svg"><g><path d="m499.182 102.597c-47.171-63.097-122.003-102.597-204.323-102.597-142.224 0-252.109 118.377-254.958 254.687-.002.089-.003.178-.003.267-1.273 8.755 6.863 46.916-25.66 79.439-9.422 9.422-2.738 25.607 10.607 25.607 52.804 0 96.621-39.184 103.923-90h31.077v75c0 24.813-20.187 45-45 45-8.284 0-15 6.716-15 15 0 41.355 33.645 75 75 75 35.542 0 65.39-24.854 73.078-58.093 9.107 2.738 17.151 8.338 23.046 16.254 43.986 59.076 87.692 73.839 132.042 73.839h11.834c8.284 0 15-6.716 15-15v-152c0-8.284-6.716-15-15-15h-30c-19.557 0-36.239-12.539-42.43-30h72.43c8.284 0 15-6.716 15-15v-30c0-37.873-16.049-74.215-44.036-99.751l21.172-21.172c1.862 1.731 3.695 3.504 5.49 5.33 17.018 17.314 43.515 18.658 61.635 3.126l22.826-19.566c5.994-5.138 6.979-14.045 2.25-20.37zm-99.337 152.403v15h-75c-8.284 0-15 6.716-15 15 0 41.355 33.645 75 75 75h15v121.973c-4.902-.083-9.835-.36-14.703-.826-39.84-3.817-70.992-35.226-90.11-60.903-14.102-18.938-36.602-30.244-60.187-30.244-8.284 0-15 6.716-15 15 0 24.813-20.187 45-45 45-20.269 0-37.45-13.471-43.064-31.928 33.225-7.699 58.064-37.54 58.064-73.072v-84.84c0-56.431 41.569-104.601 94.636-109.664 63.915-6.092 115.364 44.349 115.364 104.504zm-38.595-117.618c-23.857-13.564-51.287-19.452-79.618-16.75-62.987 6.01-111.596 57.219-120.364 119.368h-30.296c9.618-80.681 77.224-150 163.888-150 31.732 0 62.058 8.918 88.203 25.57zm93.331-17.626c-5.991 5.135-14.896 4.543-20.715-1.377-37-37.646-86.367-58.379-139.007-58.379-107.882 0-192.131 89.635-195.009 194.589-.004.137-.006.274-.006.411 0 29-16.546 54.209-40.691 66.683 14.122-30.642 9.938-55.451 10.744-66.501 2.572-119.902 100.127-225.182 224.962-225.182 66.878 0 128.657 28.838 171.575 79.595z"/></g></svg>